<?xml version="1.0" encoding="UTF-8" standalone="no"?>
<!-- Created with Inkscape (http://www.inkscape.org/) -->

<svg
   width="2014"
   height="300"
   viewBox="0 0 532.87082 79.375002"
   version="1.1"
   id="svg1255"
   inkscape:version="1.1 (c4e8f9e, 2021-05-24)"
   sodipodi:docname="LogoMP.svg"
   xmlns:inkscape="http://www.inkscape.org/namespaces/inkscape"
   xmlns:sodipodi="http://sodipodi.sourceforge.net/DTD/sodipodi-0.dtd"
   xmlns="http://www.w3.org/2000/svg"
   xmlns:svg="http://www.w3.org/2000/svg">
  <sodipodi:namedview
     id="namedview1257"
     pagecolor="#ffffff"
     bordercolor="#666666"
     borderopacity="1.0"
     inkscape:pageshadow="2"
     inkscape:pageopacity="0.0"
     inkscape:pagecheckerboard="0"
     inkscape:document-units="mm"
     showgrid="false"
     units="px"
     height="300px"
     inkscape:zoom="0.27105835"
     inkscape:cx="999.78475"
     inkscape:cy="426.10752"
     inkscape:window-width="1465"
     inkscape:window-height="847"
     inkscape:window-x="48"
     inkscape:window-y="25"
     inkscape:window-maximized="0"
     inkscape:current-layer="g24895" />
  <defs
     id="defs1252" />
  <g
     inkscape:label="Camada 1"
     inkscape:groupmode="layer"
     id="layer1">
    <g
       id="g24160"
       transform="translate(-121.8242,-60.911686)">
      <g
         id="g24895"
         transform="translate(132.967,-108.8125)">
        <path
           style="fill:#070707;stroke-width:0.421886"
           d="m 283.56702,233.27 c -0.26129,0 -0.42189,-2.26177 -0.42189,-5.94155 0,-4.56302 0.12235,-5.90195 0.52735,-5.77084 0.29005,0.0939 1.4766,1.81518 2.63678,3.82507 1.16019,2.00991 2.21276,3.65754 2.33904,3.66141 0.12629,0.004 1.17678,-1.65272 2.33443,-3.68137 1.15764,-2.02863 2.43071,-3.75119 2.82905,-3.82789 0.65671,-0.12648 0.72425,0.41423 0.72425,5.79784 0,4.93549 -0.1044,5.93733 -0.61855,5.93733 -0.4977,0 -0.64196,-0.88613 -0.7383,-4.53526 l -0.11975,-4.53527 -2.01529,3.48055 c -1.10842,1.9143 -2.19513,3.48056 -2.41493,3.48056 -0.21981,0 -1.18111,-1.42386 -2.13622,-3.16414 -0.95513,-1.74028 -1.90927,-3.16415 -2.12035,-3.16415 -0.21105,0 -0.38375,1.89849 -0.38375,4.21886 0,2.53131 -0.16875,4.21885 -0.42187,4.21885 z m 14.52489,0 c -0.39867,0 -0.59298,-0.22395 -0.45753,-0.52735 0.12949,-0.29005 1.14698,-2.71062 2.26109,-5.37904 1.1141,-2.66843 2.17877,-5.08899 2.36591,-5.37904 0.18715,-0.29004 0.49643,-0.52736 0.6873,-0.52736 0.19086,0 1.41368,2.4822 2.71736,5.51601 1.30367,3.03381 2.37032,5.69169 2.37032,5.9064 0,0.21471 -0.26908,0.39038 -0.59794,0.39038 -0.32885,0 -0.92419,-0.85432 -1.32297,-1.89848 l -0.72503,-1.89848 h -2.48899 -2.48899 l -0.81379,1.89848 c -0.4926,1.1492 -1.08727,1.89848 -1.50674,1.89848 z m 4.87567,-4.64074 h 2.10327 l -0.86779,-2.21489 c -0.47728,-1.2182 -1.01503,-2.36622 -1.195,-2.55118 -0.17995,-0.18496 -0.73593,0.6472 -1.23548,1.84927 -0.49955,1.20205 -0.90827,2.35009 -0.90827,2.55118 0,0.20109 0.94647,0.36562 2.10327,0.36562 z m 10.34234,4.64074 c -0.52876,0 -0.63283,-0.86721 -0.63283,-5.27356 v -5.27357 h -2.14457 c -1.52775,0 -2.09425,-0.15168 -1.96958,-0.52736 0.12279,-0.37003 1.58058,-0.56294 4.88683,-0.64664 4.00367,-0.10141 4.71184,-0.0221 4.71184,0.52735 0,0.49472 -0.49561,0.64665 -2.10943,0.64665 h -2.10942 v 5.27357 c 0,4.40635 -0.10405,5.27356 -0.63284,5.27356 z m 11.93921,-0.001 c -0.76563,-8.5e-4 -1.97681,-0.35816 -2.69149,-0.79397 -0.71468,-0.43581 -1.61647,-1.4605 -2.00396,-2.27708 -0.3875,-0.81647 -0.70453,-2.09451 -0.70453,-2.83997 0,-0.74548 0.41079,-2.0863 0.91286,-2.97964 0.50208,-0.89332 1.52747,-1.91588 2.27866,-2.27233 0.75118,-0.35646 1.90664,-0.64741 2.56768,-0.64654 0.66105,8.5e-4 1.78665,0.35815 2.50133,0.79397 0.71468,0.43581 1.61645,1.46049 2.00395,2.27708 0.38749,0.81658 0.70453,2.19299 0.70453,3.05868 0,0.86569 -0.39802,2.218 -0.88449,3.00513 -0.48648,0.78714 -1.4263,1.71133 -2.08848,2.05375 -0.66219,0.34243 -1.83041,0.6219 -2.59606,0.62103 z m -0.007,-0.85871 c 0.0654,0.01 0.76478,-0.25331 1.55405,-0.58307 0.79785,-0.33337 1.72845,-1.16703 2.09588,-1.87754 0.36346,-0.70287 0.66084,-1.94524 0.66084,-2.7608 0,-1.05706 -0.376,-1.91113 -1.30935,-2.97416 -1.01395,-1.15483 -1.63115,-1.49128 -2.73561,-1.49128 -0.96264,0 -1.84455,0.37711 -2.7132,1.16018 -0.79891,0.72022 -1.37707,1.72777 -1.52459,2.65687 -0.14516,0.91421 0.0185,2.10988 0.42074,3.07239 0.44058,1.05447 1.11717,1.77506 2.04529,2.1783 0.76282,0.33143 1.44048,0.61003 1.50595,0.61911 z m 19.93213,0.85871 c -0.81851,-8.5e-4 -2.11663,-0.38472 -2.88472,-0.85301 -0.76807,-0.46829 -1.66985,-1.50564 -2.00395,-2.30524 -0.3341,-0.7996 -0.60674,-2.17184 -0.60586,-3.04943 8.5e-4,-0.87759 0.37216,-2.20341 0.82512,-2.94627 0.45294,-0.74285 1.39204,-1.64464 2.08689,-2.00396 0.69483,-0.35921 1.85174,-0.6532 2.5709,-0.6532 0.71916,0 1.84467,0.27776 2.50114,0.61723 0.65647,0.33947 1.31213,0.92615 1.45701,1.30373 0.1449,0.37758 0.15366,0.86412 0.0195,1.08121 -0.13417,0.21708 -0.81382,-0.0848 -1.51033,-0.67091 -0.73614,-0.61942 -1.79441,-1.0656 -2.52742,-1.0656 -0.69356,0 -1.62628,0.19548 -2.07269,0.43439 -0.44642,0.23892 -1.09841,0.98889 -1.44886,1.66659 -0.35046,0.67771 -0.6372,1.8206 -0.6372,2.53976 0,0.71916 0.29738,1.88263 0.66085,2.5855 0.37521,0.72557 1.301,1.54541 2.1419,1.89676 1.34028,0.56 1.62834,0.54683 3.03065,-0.13871 1.24583,-0.60903 1.5755,-1.0263 1.6818,-2.12866 0.12364,-1.28238 0.0469,-1.37111 -1.18509,-1.37111 -0.77075,0 -1.20911,-0.17505 -1.05655,-0.42189 0.14341,-0.23204 1.00894,-0.42189 1.9234,-0.42189 h 1.66264 v 2.95319 c 0,1.74746 -0.17767,2.9532 -0.43513,2.9532 -0.23932,0 -0.54337,-0.28204 -0.67564,-0.62676 -0.21275,-0.55443 -0.34379,-0.55443 -1.13535,0 -0.49216,0.34472 -1.56452,0.62606 -2.38303,0.62519 z m 9.25662,0.001 c -0.23932,0 -0.53024,-0.24783 -0.64648,-0.55075 -0.11624,-0.30292 -0.15774,-2.91334 -0.0922,-5.80093 l 0.11911,-5.25016 2.29782,-0.1304 c 1.26381,-0.0718 2.73996,-0.0194 3.28034,0.11624 0.54039,0.13563 1.3574,0.62147 1.81557,1.07964 0.55505,0.55505 0.83304,1.40288 0.83304,2.54073 0,1.30157 -0.26354,1.95191 -1.10818,2.7347 -1.06169,0.98395 -1.07939,1.07159 -0.42189,2.08929 0.37746,0.58424 0.99289,1.53688 1.36764,2.11696 0.64251,0.9946 0.63546,1.05472 -0.12375,1.05472 -0.51745,0 -1.25076,-0.75066 -2.05247,-2.10106 -1.18225,-1.99134 -1.341,-2.10148 -3.04039,-2.10942 l -1.79301,-0.008 v 2.10943 c 0,1.16782 -0.19424,2.10943 -0.43513,2.10943 z m 2.72536,-5.4845 c 1.51952,0 2.51333,-0.22311 2.95319,-0.66297 0.36463,-0.36463 0.66297,-1.15654 0.66297,-1.7598 0,-0.60324 -0.3142,-1.444 -0.69822,-1.86834 -0.51052,-0.56412 -1.3044,-0.77152 -2.95319,-0.77152 h -2.25498 v 2.53131 2.53132 z m 13.56744,5.4845 c -0.96124,0 -2.21713,-0.32352 -2.79083,-0.71893 -0.57371,-0.39542 -1.27735,-1.01243 -1.56364,-1.37113 -0.28627,-0.35871 -0.7315,-1.40408 -0.98941,-2.32306 -0.33726,-1.20181 -0.34183,-2.09501 -0.0163,-3.18166 0.24896,-0.83093 1.00524,-2.04021 1.68064,-2.68728 0.7575,-0.72573 1.8663,-1.26212 2.89396,-1.39995 1.10561,-0.1483 2.12101,0.012 3.01893,0.4762 0.74413,0.3848 1.72356,1.30744 2.1765,2.05029 0.47855,0.78486 0.8242,2.11052 0.82511,3.1646 8.5e-4,0.99769 -0.2794,2.35733 -0.62282,3.02142 -0.34342,0.66411 -1.12841,1.60392 -1.74443,2.08848 -0.72643,0.57142 -1.73423,0.88102 -2.86776,0.88102 z m 0.3849,-1.11142 c 0.46408,-0.13316 1.27941,-0.51703 1.81184,-0.85305 0.53245,-0.33603 1.14945,-1.08802 1.37113,-1.67108 0.22169,-0.58306 0.40306,-1.62673 0.40306,-2.31925 0,-0.69253 -0.28674,-1.81364 -0.63719,-2.49135 -0.35045,-0.6777 -1.00245,-1.42767 -1.44887,-1.66659 -0.44642,-0.23891 -1.4083,-0.43439 -2.13751,-0.43439 -0.89509,0 -1.71642,0.39058 -2.52801,1.20218 -0.6612,0.6612 -1.32874,1.87676 -1.48342,2.70124 -0.19187,1.02273 -0.0581,1.96914 0.42081,2.97847 0.39368,0.82962 1.29113,1.76855 2.04322,2.13767 0.73765,0.36203 1.72088,0.5493 2.18494,0.41615 z m 12.15694,1.09453 c -1.11742,-0.01 -2.55377,-0.30013 -3.19187,-0.6463 -0.63811,-0.34618 -1.16019,-0.90812 -1.16019,-1.24877 0,-0.34064 0.17865,-0.61935 0.39699,-0.61935 0.21834,0 0.51113,0.18469 0.65064,0.41043 0.13951,0.22573 0.9772,0.60524 1.86154,0.84337 1.12709,0.30349 2.00486,0.29458 2.93539,-0.0298 1.0805,-0.37666 1.32749,-0.69225 1.32749,-1.6962 0,-0.87979 -0.27215,-1.34766 -0.94924,-1.63186 -0.52208,-0.21913 -1.7145,-0.59088 -2.64982,-0.8261 -0.93531,-0.2352 -2.05664,-0.68802 -2.49183,-1.00623 -0.5241,-0.38323 -0.7775,-1.06276 -0.7505,-2.01259 0.0287,-1.00831 0.38428,-1.72953 1.19798,-2.4295 0.97035,-0.83471 1.49056,-0.96346 3.2209,-0.79719 1.135,0.10906 2.37039,0.50504 2.74532,0.87996 0.37492,0.37494 0.54195,0.82142 0.37119,0.99219 -0.17077,0.17076 -0.67898,0.0804 -1.12934,-0.2009 -0.45038,-0.28125 -1.5576,-0.51138 -2.46047,-0.51138 -0.91674,0 -1.86501,0.26919 -2.14754,0.60961 -0.27825,0.33528 -0.44388,1.04722 -0.36806,1.58208 0.11325,0.79871 0.6767,1.14569 3.15373,1.94196 2.45504,0.78921 3.10582,1.18666 3.49959,2.13732 0.33522,0.80928 0.35456,1.50758 0.063,2.27446 -0.23141,0.60865 -0.79704,1.30803 -1.25697,1.55417 -0.45993,0.24615 -1.7505,0.43994 -2.86793,0.43064 z m 11.72815,0.007 c -1.07089,-0.005 -2.57088,-0.31707 -3.33333,-0.69286 -0.76245,-0.37579 -1.30826,-0.89355 -1.21291,-1.15057 0.0953,-0.25704 0.33947,-0.42464 0.54249,-0.37247 0.20304,0.0521 1.22849,0.41512 2.27878,0.80653 1.68162,0.62668 2.05881,0.64016 3.15898,0.11289 0.68714,-0.32934 1.31481,-0.93871 1.39482,-1.35415 0.08,-0.41545 -0.0849,-1.03293 -0.36645,-1.37218 -0.28155,-0.33925 -1.57871,-0.92181 -2.88257,-1.29458 -1.30385,-0.37277 -2.70288,-0.96982 -3.10893,-1.32679 -0.40607,-0.35696 -0.7383,-1.1681 -0.7383,-1.80255 0,-0.63444 0.33972,-1.57306 0.75495,-2.08584 0.50716,-0.62635 1.3842,-1.00325 2.67233,-1.14844 1.33014,-0.14993 2.3413,0.002 3.30144,0.49959 0.9296,0.48072 1.24447,0.85528 0.95898,1.14079 -0.2855,0.2855 -0.70788,0.27371 -1.28641,-0.0359 -0.47373,-0.25355 -1.59522,-0.46099 -2.49222,-0.46099 -0.89699,0 -1.85872,0.22782 -2.13716,0.50627 -0.27845,0.27844 -0.50627,0.94699 -0.50627,1.48564 0,0.61634 0.35187,1.12708 0.94924,1.37782 0.5221,0.21914 1.76613,0.60478 2.76452,0.85697 0.99839,0.25221 2.18495,0.82823 2.63678,1.28007 0.45183,0.45184 0.82152,1.37729 0.82152,2.05655 0,0.83174 -0.363,1.52057 -1.11161,2.10943 -0.76612,0.60264 -1.71674,0.8714 -3.05867,0.86479 z m 12.39704,0.01 c -1.46846,0 -2.17317,-0.26697 -3.28756,-1.24539 -0.78013,-0.68498 -1.63801,-1.97833 -1.9064,-2.87411 -0.3116,-1.04005 -0.35468,-2.09346 -0.11911,-2.91465 0.20284,-0.70728 0.59161,-1.70226 0.86393,-2.2111 0.27232,-0.50883 1.10002,-1.29397 1.83933,-1.74477 0.73931,-0.45079 1.87877,-0.82033 2.53212,-0.82119 0.65335,-8.4e-4 1.6026,0.21199 2.10943,0.47302 0.50683,0.26104 1.3508,0.86567 1.87548,1.34365 0.5247,0.47798 1.14902,1.59335 1.3874,2.4786 0.29907,1.11068 0.29578,2.12063 -0.0108,3.25854 -0.26602,0.98791 -1.03955,2.17188 -1.92944,2.9532 -1.18209,1.03791 -1.86702,1.3042 -3.35451,1.3042 z m 0.84377,-1.20503 c 0.46407,-0.0975 1.26541,-0.55851 1.78077,-1.02467 0.51535,-0.46617 1.14708,-1.48413 1.40384,-2.26213 0.34477,-1.04464 0.33998,-1.799 -0.0183,-2.88456 -0.26682,-0.80851 -0.97161,-1.85267 -1.5662,-2.32037 -0.60828,-0.47849 -1.71612,-0.85038 -2.53322,-0.85038 -1.0425,0 -1.80004,0.3479 -2.68536,1.23321 -1.03417,1.03417 -1.2332,1.57366 -1.2332,3.34272 0,1.6422 0.23683,2.39096 1.06911,3.38007 0.58801,0.69881 1.4898,1.33642 2.00395,1.41688 0.51417,0.0805 1.31454,0.0666 1.77862,-0.0307 z m 16.89636,1.20503 h -2.76321 v -5.9064 -5.90639 h 2.54487 c 1.39967,0 3.16443,0.25887 3.92167,0.57527 0.75725,0.3164 1.74106,1.12326 2.18625,1.79301 0.55227,0.83086 0.80943,1.95495 0.80943,3.53811 0,1.55915 -0.25781,2.70806 -0.78584,3.50212 -0.43222,0.64996 -1.31778,1.45682 -1.96791,1.79301 -0.6792,0.35123 -2.35755,0.61127 -3.94526,0.61127 z m 0.63962,-1.26565 c 1.17543,0 2.52044,-0.20513 2.98891,-0.45585 0.46845,-0.25071 1.12044,-1.09894 1.44886,-1.88494 0.32842,-0.786 0.59711,-1.83365 0.59711,-2.32812 0,-0.49447 -0.29393,-1.51843 -0.65316,-2.27547 -0.35923,-0.75703 -1.12756,-1.59258 -1.70739,-1.85677 -0.57983,-0.26418 -1.89962,-0.48034 -2.93286,-0.48034 h -1.87863 v 4.64074 4.64075 z m 14.65372,1.26407 c -0.76564,-8.5e-4 -2.0205,-0.38472 -2.78859,-0.85301 -0.76808,-0.46829 -1.66986,-1.50564 -2.00396,-2.30524 -0.33409,-0.7996 -0.60743,-2.04822 -0.60743,-2.77473 0,-0.72651 0.31703,-1.98902 0.70452,-2.80561 0.38751,-0.81659 1.28929,-1.84127 2.00396,-2.27708 0.71468,-0.43582 1.94148,-0.7931 2.72623,-0.79396 0.78474,-8.4e-4 2.0534,0.38569 2.81925,0.85901 0.90274,0.55792 1.64274,1.51594 2.10412,2.72404 0.48362,1.26635 0.6181,2.36224 0.41967,3.41995 -0.16059,0.85607 -0.59115,2.01305 -0.95679,2.57108 -0.36563,0.55803 -1.19672,1.28967 -1.84684,1.62586 -0.65014,0.3362 -1.80849,0.61056 -2.57414,0.60969 z m -0.007,-0.8587 c 0.0654,0.01 0.74469,-0.24491 1.50938,-0.56442 0.89995,-0.37602 1.65548,-1.13965 2.14205,-2.16502 0.50258,-1.05911 0.67134,-2.09001 0.50924,-3.11057 -0.15248,-0.95991 -0.72014,-1.95708 -1.52943,-2.68666 -0.85314,-0.7691 -1.74693,-1.15702 -2.65145,-1.1508 -0.75046,0.005 -1.76941,0.3374 -2.26433,0.7383 -0.49492,0.40091 -1.11193,1.1436 -1.37113,1.65043 -0.25919,0.50682 -0.47125,1.51295 -0.47125,2.23584 0,0.72289 0.29704,1.88879 0.66012,2.59089 0.36307,0.70211 1.26485,1.53957 2.00396,1.86102 0.7391,0.32146 1.39738,0.5919 1.46284,0.60099 z m 18.89174,0.85068 c -1.17444,-0.005 -2.75235,-0.31378 -3.50647,-0.68553 -0.75412,-0.37175 -1.37113,-0.83085 -1.37113,-1.02022 0,-0.18935 0.18449,-0.4583 0.40996,-0.59766 0.22549,-0.13935 0.89393,0.0637 1.48545,0.4513 0.5915,0.38756 1.80635,0.72384 2.69965,0.74725 0.89331,0.0234 1.9335,-0.2141 2.31153,-0.52784 0.37805,-0.31374 0.68734,-0.89747 0.68734,-1.29718 0,-0.39969 -0.33223,-1.02484 -0.7383,-1.38923 -0.40606,-0.36439 -1.42783,-0.79044 -2.27061,-0.94678 -0.84277,-0.15634 -2.12424,-0.64423 -2.84772,-1.08421 -1.00485,-0.61108 -1.31544,-1.10024 -1.31544,-2.07181 0,-0.70388 0.37202,-1.64386 0.83305,-2.10489 0.45817,-0.45817 1.32279,-0.95596 1.92139,-1.1062 0.59859,-0.15023 1.75944,-0.16426 2.57968,-0.0311 0.82023,0.13311 1.76722,0.47097 2.1044,0.75081 0.38032,0.31562 0.4633,0.65856 0.2186,0.90327 -0.24471,0.24471 -0.72149,0.21946 -1.2558,-0.0665 -0.47373,-0.25354 -1.52472,-0.46098 -2.33554,-0.46098 -0.8108,0 -1.77253,0.29834 -2.13716,0.66297 -0.36463,0.36463 -0.66295,0.90475 -0.66295,1.20027 0,0.29552 0.33223,0.83543 0.73829,1.19982 0.40607,0.36439 1.42784,0.79044 2.27061,0.94678 0.84277,0.15633 2.12425,0.64422 2.84773,1.08421 1.06689,0.6488 1.31541,1.07698 1.31541,2.26631 0,0.96519 -0.31557,1.76036 -0.92332,2.32657 -0.68107,0.63451 -1.48358,0.85768 -3.05866,0.8506 z m 12.3448,0.01 c -1.02458,0 -2.28409,-0.30629 -2.82901,-0.68796 -0.54021,-0.37838 -1.24693,-1.32152 -1.57048,-2.09588 -0.35574,-0.85144 -0.58826,-2.914 -0.58826,-5.21843 0,-3.10587 0.11708,-3.81052 0.63283,-3.81052 0.5168,0 0.63312,0.71557 0.6344,3.90245 10e-4,3.08909 0.1686,4.17633 0.80291,5.21657 0.48908,0.80203 1.26104,1.402 1.98103,1.53964 0.64883,0.12404 1.5768,0.0745 2.06215,-0.11002 0.48536,-0.18453 1.15943,-0.66811 1.49796,-1.07464 0.41178,-0.49449 0.6853,-2.1497 0.82643,-5.0011 0.16895,-3.41342 0.33693,-4.26198 0.84377,-4.26198 0.3898,0 0.68829,0.48607 0.77724,1.26565 0.0794,0.69612 0.0121,2.68089 -0.14955,4.4106 -0.26222,2.80533 -0.4441,3.29507 -1.68429,4.53526 -1.14904,1.14904 -1.71085,1.39034 -3.23713,1.39034 z m 12.93047,0 h -4.01981 l 0.11744,-5.76634 c 0.0845,-4.15185 0.26502,-5.8154 0.64473,-5.94156 0.40323,-0.13396 0.52735,1.07436 0.52735,5.13353 v 5.30872 h 3.37508 c 2.71882,0 3.37509,0.12305 3.37509,0.63282 0,0.51824 -0.7279,0.63283 -4.01982,0.63283 z M 319.54628,210.02313 c -1.10963,-0.0238 -2.58705,-0.18095 -3.28315,-0.34933 -0.69612,-0.16839 -1.9776,-0.6452 -2.84773,-1.0596 -0.87014,-0.41439 -1.58207,-0.93985 -1.58207,-1.16764 0,-0.22781 0.32678,-0.9674 0.72617,-1.64352 0.3994,-0.67612 0.82655,-1.17035 0.94924,-1.09827 0.12269,0.0721 1.12899,0.55923 2.23622,1.08256 1.33233,0.62973 2.60187,0.9078 3.754,0.82223 1.09407,-0.0812 1.91276,-0.40357 2.20354,-0.86757 0.33528,-0.53497 0.3355,-0.93996 8.5e-4,-1.47056 -0.25404,-0.40274 -2.02069,-1.2096 -3.92588,-1.79301 -1.9052,-0.58342 -3.92709,-1.50784 -4.4931,-2.05428 -0.72189,-0.69692 -1.02864,-1.45259 -1.02754,-2.53131 8.5e-4,-0.84579 0.35816,-2.12252 0.79397,-2.83722 0.43581,-0.71466 1.4605,-1.61645 2.27708,-2.00395 0.84069,-0.39892 2.51516,-0.70452 3.86032,-0.70452 1.3066,0 3.06691,0.28882 3.9118,0.64184 0.84489,0.35302 1.78602,0.84921 2.09139,1.10266 0.45476,0.3774 0.42505,0.68123 -0.16406,1.67852 -0.39563,0.66974 -0.95196,1.21771 -1.23629,1.21771 -0.28434,0 -0.61821,-0.1638 -0.74194,-0.36402 -0.12374,-0.2002 -1.07647,-0.60241 -2.1172,-0.8938 -1.04073,-0.29138 -2.3619,-0.41191 -2.93594,-0.26783 -0.57406,0.14407 -1.16698,0.65033 -1.31764,1.12499 -0.15066,0.47467 -0.05,1.13281 0.22362,1.46253 0.27364,0.32973 2.05453,1.07442 3.95754,1.65487 2.17533,0.66352 3.83105,1.45031 4.45931,2.11908 0.74662,0.79473 0.9993,1.54549 0.9993,2.96906 0,1.42859 -0.2551,2.18201 -1.01954,3.011 -0.56076,0.60811 -1.63048,1.36595 -2.37713,1.68411 -0.74667,0.31815 -2.26546,0.55902 -3.37509,0.53527 z m 14.90042,0.0165 c -0.71948,-0.0147 -1.69445,-0.18332 -2.16659,-0.37468 -0.47213,-0.19138 -1.13659,-0.68223 -1.47659,-1.09077 -0.45284,-0.54414 -0.6746,-2.33393 -0.82913,-6.69189 l -0.21094,-5.94908 -1.16018,-0.1335 c -1.00953,-0.11612 -1.16018,-0.31796 -1.16018,-1.55404 0,-1.23608 0.15065,-1.4379 1.16018,-1.55405 1.12343,-0.12927 1.16413,-0.22371 1.28493,-2.98123 l 0.12474,-2.84772 h 2.07088 2.07087 l 0.12475,2.84772 0.12475,2.84773 h 1.79355 1.79357 v 1.68755 1.68754 h -1.79357 -1.79355 l -0.12072,4.3682 c -0.0832,3.01029 0.0416,4.56381 0.40153,4.99745 0.37321,0.44971 0.97372,0.55708 2.10435,0.37628 1.53789,-0.24591 1.59426,-0.20905 2.01594,1.31812 0.23858,0.8641 0.29519,1.69329 0.12577,1.84263 -0.16941,0.14936 -0.95336,0.4873 -1.7421,0.75101 -0.78875,0.2637 -2.02276,0.46743 -2.74226,0.45272 z m 14.09065,0.0151 c -1.04417,-0.004 -2.65952,-0.35265 -3.58965,-0.77519 -0.93014,-0.42256 -2.29854,-1.46006 -3.04092,-2.30557 -0.74236,-0.84551 -1.56716,-2.34467 -1.83288,-3.33147 -0.26571,-0.9868 -0.37217,-2.60361 -0.23658,-3.59292 0.1356,-0.98929 0.6255,-2.54153 1.08866,-3.44939 0.46316,-0.90786 1.36849,-2.00813 2.01183,-2.44505 0.64336,-0.43693 1.70075,-1.02246 2.34978,-1.30119 0.64901,-0.27874 2.28033,-0.50678 3.62514,-0.50678 1.74556,0 2.97706,0.28083 4.30447,0.98163 1.02264,0.53989 2.39134,1.73679 3.04152,2.65979 0.82038,1.16458 1.25806,2.4135 1.43015,4.08099 l 0.248,2.40283 h -6.59824 c -6.25391,0 -6.59825,0.0428 -6.59825,0.82025 0,0.45113 0.43342,1.32412 0.96316,1.93998 0.69305,0.80571 1.49713,1.17993 2.86715,1.33436 1.62641,0.18332 2.1005,0.0493 3.25194,-0.91963 1.10636,-0.93095 1.59436,-1.08158 2.72283,-0.84052 0.75618,0.16155 1.63777,0.43617 1.95911,0.61031 0.44258,0.23983 0.16794,0.73286 -1.1328,2.0336 -0.96103,0.96105 -2.42564,1.91379 -3.32648,2.16395 -0.8852,0.24582 -2.46378,0.44381 -3.50794,0.44002 z m 0.21094,-10.53551 c 2.43639,0 4.42909,-0.1424 4.42821,-0.31643 -8.3e-4,-0.17402 -0.36587,-0.91384 -0.81111,-1.64404 -0.48232,-0.79099 -1.40498,-1.52415 -2.28262,-1.81379 -1.18089,-0.38973 -1.76757,-0.36311 -2.95782,0.13421 -0.84436,0.3528 -1.76979,1.17156 -2.1456,1.89832 -0.36347,0.70286 -0.66086,1.38229 -0.66086,1.50983 0,0.12754 1.99341,0.2319 4.4298,0.2319 z m 40.65681,10.38808 c -1.70297,0.11014 -3.28123,-0.0476 -4.30921,-0.43045 -0.89214,-0.33233 -2.10373,-1.04758 -2.69244,-1.58944 -0.5887,-0.54186 -1.42084,-1.7446 -1.84921,-2.67274 -0.45906,-0.99463 -0.78265,-2.66246 -0.78812,-4.06186 -0.005,-1.30588 0.25995,-3.01452 0.589,-3.79697 0.32907,-0.78246 1.13591,-1.93467 1.79302,-2.56046 0.65711,-0.62579 1.90058,-1.43264 2.76326,-1.793 0.86268,-0.36038 2.52995,-0.65521 3.70504,-0.65521 1.1751,0 2.83977,0.29383 3.69929,0.65296 0.85952,0.35913 2.01756,1.07105 2.57342,1.58207 0.55585,0.51101 1.36113,1.6885 1.7895,2.61664 0.45716,0.99054 0.78268,2.66209 0.78812,4.04703 0.006,1.66957 -0.27777,2.90316 -0.97237,4.21886 -0.5399,1.02264 -1.75126,2.40149 -2.6919,3.06409 -1.33536,0.94063 -2.29931,1.24281 -4.3974,1.37848 z m -0.3669,-3.79611 c 0.90846,-0.1442 1.92319,-0.72964 2.63691,-1.52135 0.9071,-1.00623 1.16018,-1.70571 1.16018,-3.20653 0,-1.05576 -0.21206,-2.33425 -0.47126,-2.84107 -0.25919,-0.50683 -0.8762,-1.24952 -1.37112,-1.65043 -0.4973,-0.40283 -1.62629,-0.73312 -2.52361,-0.7383 -1.26511,-0.007 -1.88343,0.26861 -2.79945,1.24921 -0.64665,0.69223 -1.29908,1.91624 -1.44987,2.72003 -0.16953,0.90368 -0.0464,2.00644 0.32249,2.88942 0.32815,0.7854 1.14167,1.85672 1.80782,2.38071 0.92864,0.73046 1.55567,0.89803 2.68791,0.71831 z m 44.50903,3.929 c -0.92816,-0.005 -2.20724,-0.28961 -2.84243,-0.63426 -0.63519,-0.34464 -1.47674,-1.23883 -1.87012,-1.98706 -0.54677,-1.04 -0.75895,-2.82213 -0.90079,-7.56608 -0.10201,-3.41311 -0.0915,-6.45069 0.0233,-6.75017 0.14385,-0.37492 0.8827,-0.49898 2.37209,-0.39832 l 2.16316,0.14619 v 5.6312 c 0,5.28377 0.0605,5.70149 0.97993,6.77043 0.84803,0.9859 1.18529,1.10069 2.50588,0.85295 0.94812,-0.17786 1.93498,-0.77237 2.6061,-1.56995 1.03209,-1.22657 1.08014,-1.51687 1.08014,-6.52487 v -5.24121 h 2.32037 2.32037 v 6.53923 c 0,4.30467 0.15206,6.53922 0.44501,6.53922 0.26766,0 0.39374,0.79858 0.31641,2.00396 -0.11852,1.84726 -0.22144,2.01459 -1.31605,2.14008 -0.65309,0.0749 -1.6498,-0.16682 -2.2149,-0.53708 -0.56509,-0.37027 -1.02744,-1.04854 -1.02744,-1.50726 0,-0.45872 -0.1666,-0.83404 -0.37022,-0.83404 -0.20363,0 -0.63079,0.31486 -0.94924,0.69968 -0.31847,0.38483 -1.33841,1.04513 -2.26656,1.46734 -0.92815,0.4222 -2.44693,0.76422 -3.37508,0.76002 z m 24.33641,0.01 c -0.85503,-0.01 -2.12422,-0.26478 -2.82043,-0.56819 -0.6962,-0.30342 -1.54721,-0.89074 -1.89115,-1.30514 -0.59099,-0.7121 -0.63824,-0.69829 -0.86058,0.25176 -0.20079,0.85797 -0.52637,1.02408 -2.22223,1.13383 l -1.98698,0.12857 v -12.06879 -12.06889 l 2.21489,0.12751 2.21491,0.12752 0.21094,4.603 c 0.18618,4.06263 0.28162,4.5175 0.81304,3.87462 0.33116,-0.4006 1.12858,-1.00063 1.77205,-1.33339 0.64349,-0.33276 2.04314,-0.605 3.11036,-0.605 1.06721,0 2.45303,0.26673 3.07961,0.59273 0.62659,0.32602 1.55733,1.04054 2.06835,1.58783 0.511,0.5473 1.23813,1.73473 1.61586,2.63872 0.37771,0.904 0.6815,2.74047 0.67509,4.08105 -0.007,1.57347 -0.30488,3.00759 -0.83892,4.04606 -0.455,0.88475 -1.36674,2.11865 -2.0261,2.74198 -0.65934,0.62335 -1.73326,1.33528 -2.38647,1.58208 -0.65319,0.2468 -1.88721,0.4413 -2.74224,0.43221 z m -0.54488,-3.94036 c 0.7874,-0.12571 1.88116,-0.65089 2.43059,-1.16705 0.54942,-0.51616 1.19043,-1.64953 1.42444,-2.51862 0.33171,-1.23183 0.27628,-1.9531 -0.25145,-3.272 -0.37233,-0.93053 -1.12879,-1.98791 -1.68104,-2.34977 -0.55226,-0.36186 -1.65272,-0.65792 -2.44548,-0.65792 -1.06822,0 -1.78644,0.35292 -2.77415,1.36318 -1.25508,1.28372 -1.32563,1.52265 -1.21025,4.09857 0.11648,2.59966 0.19579,2.78492 1.59913,3.73378 1.10425,0.74663 1.83759,0.94075 2.90821,0.76982 z m 15.37069,3.95451 c -0.82736,0.001 -1.83459,-0.41486 -2.63678,-1.08986 l -1.29803,-1.09224 v -11.14245 -11.14246 h 2.10943 2.10943 v 9.67323 c 0,8.14401 0.10261,9.77584 0.64914,10.32238 0.422,0.422 1.06505,0.56597 1.83764,0.41145 1.07091,-0.21419 1.21537,-0.10321 1.46028,1.12126 0.14949,0.74743 0.27179,1.51615 0.27179,1.70827 0,0.19214 -0.71194,0.54704 -1.58207,0.78868 -0.87013,0.24166 -2.18451,0.44043 -2.92083,0.44172 z m 22.31847,0.002 c -1.35598,0 -2.78483,-0.37109 -4.26074,-1.10657 -1.42929,-0.71225 -2.6153,-1.70303 -3.32828,-2.7804 -0.77958,-1.17803 -1.16015,-2.3991 -1.2848,-4.12229 -0.0974,-1.34665 0.0505,-3.13787 0.32851,-3.98048 0.27808,-0.84261 1.00352,-2.12376 1.61209,-2.84699 0.60856,-0.72323 1.87372,-1.66349 2.81147,-2.08945 1.01188,-0.45963 2.69665,-0.77824 4.14438,-0.78374 1.34167,-0.005 3.0503,0.24745 3.79697,0.56122 0.74667,0.31377 1.9678,1.19719 2.71363,1.96316 0.74583,0.76597 1.27114,1.53006 1.16736,1.69799 -0.1038,0.16793 -1.05688,0.52393 -2.11799,0.79112 -1.72912,0.4354 -2.04218,0.39701 -3.01727,-0.36999 -0.65011,-0.51137 -1.71943,-0.85579 -2.65701,-0.85579 -1.07414,0 -1.91577,0.32133 -2.6683,1.01875 -0.60458,0.56031 -1.22531,1.52102 -1.37939,2.13491 -0.15408,0.61389 -0.17731,1.88273 -0.0517,2.81968 0.12566,0.93694 0.65411,2.15658 1.17431,2.71031 0.5202,0.55373 1.55995,1.122 2.31053,1.2628 0.75059,0.14082 1.74958,0.05 2.22,-0.20171 0.47042,-0.25176 1.13653,-0.73898 1.48025,-1.0827 0.55202,-0.55203 0.87652,-0.55026 2.78041,0.0152 1.82141,0.54091 2.09527,0.75176 1.76706,1.3605 -0.21363,0.39622 -0.8356,1.1385 -1.38215,1.6495 -0.54656,0.51101 -1.69698,1.22294 -2.5565,1.58208 -0.85952,0.35912 -2.48082,0.65295 -3.60291,0.65295 z m 18.2642,-0.10548 c -1.83484,0.0961 -3.01662,-0.0898 -4.25728,-0.66999 -0.94456,-0.4417 -2.30888,-1.5207 -3.03183,-2.39776 -0.72296,-0.87707 -1.53655,-2.52043 -1.80798,-3.65192 -0.27145,-1.13148 -0.3643,-2.76404 -0.20635,-3.62791 0.15795,-0.86387 0.74491,-2.35918 1.30435,-3.3229 0.72264,-1.24485 1.65374,-2.06944 3.21554,-2.84773 1.57872,-0.78669 2.86336,-1.09549 4.55746,-1.09549 1.60913,0 2.95572,0.30176 4.23585,0.94924 1.09727,0.55498 2.40479,1.70905 3.14807,2.7786 1.12838,1.6237 1.27129,2.17282 1.27129,4.88476 0,2.66072 -0.16349,3.31869 -1.26565,5.09356 -0.79102,1.27383 -1.89528,2.3637 -2.94463,2.90629 -0.99458,0.51427 -2.71427,0.9224 -4.21884,1.00125 z m 0.20237,-3.88383 c 0.94199,-0.12774 1.89664,-0.66618 2.63678,-1.4872 0.9071,-1.00623 1.16018,-1.70571 1.16018,-3.20653 0,-1.05576 -0.21206,-2.33424 -0.47126,-2.84106 -0.2592,-0.50684 -0.8762,-1.24952 -1.37113,-1.65044 -0.49729,-0.40282 -1.62629,-0.73312 -2.52362,-0.73829 -1.2628,-0.007 -1.88342,0.26861 -2.79197,1.2412 -0.64253,0.68784 -1.28,1.80945 -1.41661,2.49249 -0.1366,0.68303 -0.0866,1.78144 0.11122,2.4409 0.1978,0.65946 0.49685,1.53698 0.66454,1.95006 0.1677,0.41306 0.80449,1.03185 1.41506,1.37507 0.65837,0.3701 1.71109,0.54257 2.58677,0.4238 z m -261.59185,3.56742 c -1.31577,0 -2.19028,-0.20157 -2.31796,-0.53428 -0.11277,-0.29386 -0.15427,-5.46723 -0.0922,-11.49638 l 0.11277,-10.96208 2.39395,-0.12558 2.39395,-0.12557 1.46917,2.65689 c 0.80804,1.46128 2.29372,4.31525 3.3015,6.34215 1.00779,2.0269 1.96021,3.68808 2.1165,3.6915 0.1563,0.004 1.76845,-2.8415 3.58256,-6.32206 l 3.29839,-6.32827 h 2.4293 2.42932 v 11.60184 11.60184 h -2.31042 -2.3104 l -0.1154,-7.16499 -0.11541,-7.16498 -2.74226,5.16103 c -2.50211,4.70909 -2.85347,5.17195 -4.01236,5.2857 -1.23032,0.12076 -1.36243,-0.0505 -4.21885,-5.46936 l -2.94875,-5.59401 -0.11516,7.4733 -0.11516,7.47331 z m 27.65647,0 h -2.32038 v -8.4377 -8.43771 h 2.32038 2.32037 v 8.43771 8.4377 z m 8.01582,0 h -2.32037 v -8.4377 -8.43771 h 2.10942 c 2.00163,0 2.10943,0.0573 2.10943,1.1201 0,1.04879 0.048,1.07667 0.75374,0.43798 0.41456,-0.37517 1.45262,-0.97414 2.30682,-1.33104 0.85419,-0.35692 2.46618,-0.64892 3.58219,-0.64892 1.1931,0 2.43376,0.28344 3.01131,0.68797 0.54021,0.37838 1.24692,1.32152 1.57046,2.09586 0.41741,0.99902 0.58826,3.31103 0.58826,7.96069 v 6.55277 h -2.06055 -2.06057 l -0.16434,-5.62379 c -0.12992,-4.44592 -0.31892,-5.85971 -0.90236,-6.75016 -0.53507,-0.81663 -1.095,-1.12637 -2.03614,-1.12637 -0.91377,0 -1.72281,0.42469 -2.73253,1.4344 l -1.43441,1.43441 v 5.31575 5.31576 z m 19.40671,0 h -2.32036 v -8.4377 -8.43771 h 2.32036 2.32037 v 8.43771 8.4377 z m 55.47792,0 h -2.10943 v -8.4377 -8.43771 h 2.11544 2.11544 l -0.22297,1.26566 c -0.12264,0.69611 -0.0869,1.26565 0.0794,1.26565 0.16629,0 0.89704,-0.57639 1.62387,-1.28087 0.77988,-0.75588 1.96576,-1.38541 2.89335,-1.53594 l 1.57182,-0.25507 -0.131,2.04643 c -0.129,2.01491 -0.15686,2.05177 -1.80949,2.39315 -0.92318,0.1907 -2.20465,0.85082 -2.84773,1.46694 -1.15378,1.10537 -1.16925,1.18892 -1.16925,6.31482 v 5.19464 z m 12.23467,0 h -2.10942 v -8.4377 -8.43771 h 2.10942 2.10943 v 8.43771 8.4377 z m 36.49307,0 h -2.32036 v -11.60184 -11.60184 h 5.71639 c 4.16654,0 6.0369,0.16573 6.89849,0.61127 0.65015,0.3362 1.77181,1.28295 2.4926,2.10389 0.7208,0.82093 1.52381,2.28465 1.78448,3.2527 0.32698,1.21433 0.34466,2.26944 0.0571,3.40269 -0.22932,0.90344 -0.86177,2.29996 -1.40544,3.10339 -0.54367,0.80344 -1.76037,1.83767 -2.70377,2.29829 -1.25741,0.61396 -2.58063,0.83751 -4.95715,0.83751 h -3.24188 v 3.79697 3.79697 z m 5.09036,-11.81278 c 1.5235,0 3.12201,-0.1884 3.55224,-0.41865 0.43024,-0.23025 0.99665,-1.06829 1.2587,-1.8623 0.37713,-1.14273 0.34918,-1.74826 -0.13411,-2.90494 -0.33581,-0.8037 -0.80711,-1.58276 -1.04736,-1.73123 -0.24023,-0.14847 -1.77839,-0.36603 -3.41812,-0.48344 l -2.98134,-0.2135 v 3.80702 3.80704 z m 64.9426,11.81278 h -2.32037 v -8.4377 -8.43771 h 2.32037 2.32036 v 8.43771 8.4377 z M 349.68632,190.60214 c -0.0519,-0.0316 -0.53304,-0.14125 -1.0693,-0.24367 -0.53627,-0.10237 -1.07161,-0.43785 -1.18963,-0.74541 -0.11803,-0.30756 0.18222,-1.337 0.6672,-2.28765 0.83406,-1.63488 0.98409,-1.72844 2.77169,-1.72844 1.03946,0 1.88991,0.14492 1.88991,0.32204 0,0.17712 -0.66951,1.31621 -1.4878,2.53132 -0.81829,1.2151 -1.53023,2.18341 -1.58207,2.15181 z m 87.33025,0.0194 c -0.0518,-0.0209 -0.71167,-0.2163 -1.46626,-0.43417 l -1.37202,-0.39613 1.0627,-2.09713 c 1.0363,-2.04504 1.10969,-2.09715 2.95409,-2.09715 1.04024,0 1.89136,0.14493 1.89136,0.32206 0,0.17712 -0.66951,1.31621 -1.4878,2.5313 -0.8183,1.2151 -1.53023,2.19215 -1.58207,2.17122 z m -157.45746,-0.3838 h -2.36447 l 0.12752,-2.2149 0.12752,-2.2149 h 2.10943 2.10942 l 0.12752,2.2149 0.12752,2.2149 z m 27.42253,0 h -2.36446 l 0.12751,-2.2149 0.12753,-2.2149 h 2.10942 2.10943 l 0.12752,2.2149 0.12751,2.2149 z m 67.71259,0 h -2.10942 v -2.32037 -2.32037 h 2.10942 2.10943 v 2.32037 2.32037 z m 106.54808,0 h -2.34242 v -2.34242 -2.34241 l 2.2149,0.12751 2.21489,0.12752 0.12753,2.2149 0.12752,2.2149 z"
           id="path2216-7"
           sodipodi:nodetypes="sssscssssscssssssssssssssscccssscssssssscssssscsssssssssssssssscssssssssscsssssssssssssssssssssscssssssssscsssssssssscsssssssscccsssssssssssssssssssssssssssssssssssssssssssssssssssssssssssssssssscssssssssssssssssssssssssssssssssssssssscccsssssssssssssscccsssssssssssssscsssscssssscsssssssssssssssssssssssssssssssssssssssssssssccssscssscsssssssssssssssssssssssssssssssssssscsssscccccccccccsssssssscssssssssssscssssssssscsssssssssssssssssssscsssssssssssssssssssscssssscccsssssssssssssssscccccssssssscsssssssssssssssssscccccssssssssssssssscssssssssssssssssssssssssssssssssssssssssssssssssscccsscscccccccccssscccscccccccccccccsssssssscccsssscccccccccccccccccccsssscsssscccccccccccccccssssssssccccsssssscccscccccccccsssssssssscssssscccccccccccccccccccccccccccccccccccc" />
        <g
           id="g987">
          <g
             id="g24887">
            <path
               style="fill:#070707;stroke-width:0.352778"
               d="m -6.2933457,237.97868 h -4.7689103 l 0.0946,-27.14084 0.09461,-27.14083 1.0415303,-1.08702 c 0.572842,-0.59785 1.609723,-1.24 2.304178,-1.427 0.813312,-0.219 1.705224,-0.2178 2.506301,0.003 0.68401,0.18887 1.643944,0.78096 2.133186,1.31576 0.489243,0.53481 4.1942742,5.6555 8.2333964,11.37932 4.0391258,5.72382 8.3867093,11.87538 9.6613033,13.67014 1.274589,1.79476 2.402413,3.25714 2.506271,3.24974 0.103857,-0.007 0.752245,-0.84083 1.440857,-1.85208 0.688615,-1.01125 5.25102,-7.494 10.138682,-14.40612 7.024292,-9.93373 9.122061,-12.66498 10.009946,-13.03276 0.617806,-0.2559 1.64936,-0.45037 2.292339,-0.43214 0.642977,0.0182 1.686966,0.33212 2.319977,0.69754 0.633006,0.36542 1.428489,1.21463 1.767737,1.88713 0.570918,1.13174 0.616853,3.19787 0.617361,27.76924 l 5.47e-4,26.54654 h -4.759382 -4.759382 l -0.09131,-18.60115 -0.09131,-18.60116 -1.736806,2.46157 c -0.955245,1.35387 -3.190766,4.52532 -4.967824,7.04768 -1.777058,2.52237 -4.546226,6.44538 -6.153708,8.71781 -2.54975,3.6045 -3.12148,4.20762 -4.480591,4.72667 -1.27792,0.48804 -1.797368,0.52322 -2.890337,0.19576 -0.732836,-0.21956 -1.66334,-0.75906 -2.067779,-1.19889 -0.404442,-0.43982 -3.242289,-4.37155 -6.3063294,-8.73718 -3.0640373,-4.36562 -6.2658908,-8.92655 -7.11522812,-10.13538 -0.8493372,-1.20884 -1.69292058,-2.28977 -1.87462938,-2.40207 -0.2037045,-0.1259 -0.3303799,6.83744 -0.3303799,18.16107 v 18.36527 z m 66.6814117,0 h -4.762501 l 0.0014,-26.89931 c 0.0014,-25.86253 0.0273,-26.94193 0.675689,-28.00525 0.429796,-0.70485 1.246346,-1.32438 2.251495,-1.70825 1.387186,-0.52977 2.803444,-0.58655 11.759727,-0.47149 l 10.182603,0.13082 3.014194,1.06941 c 1.657805,0.58817 3.9202,1.67078 5.027542,2.40579 1.107341,0.73501 2.942022,2.34987 4.077067,3.58857 1.135048,1.23871 2.567488,3.19735 3.183205,4.35255 0.615718,1.15521 1.433086,3.32654 1.816379,4.8252 0.383198,1.49865 0.6968,3.86466 0.6968,5.25779 0,1.39314 -0.313602,3.75915 -0.696892,5.2578 -0.383293,1.49865 -1.200661,3.66999 -1.816378,4.82519 -0.615718,1.1552 -2.057062,3.12357 -3.20299,4.37415 -1.145928,1.25058 -3.225747,2.98105 -4.621819,3.84549 -1.396069,0.86444 -3.728936,1.93867 -5.184144,2.38717 -2.408149,0.7422 -3.31917,0.81609 -10.141257,0.82255 l -7.495424,0.007 -0.0011,6.96736 -0.0012,6.96737 z M 72.5115,214.34257 h 7.360938 l 2.510702,-1.25606 c 1.625557,-0.81323 2.945793,-1.78702 3.744821,-2.76213 0.678762,-0.82834 1.587641,-2.28717 2.01973,-3.24186 0.596255,-1.3174 0.789199,-2.41782 0.800495,-4.56543 0.01316,-2.50257 -0.11914,-3.10186 -1.144612,-5.1849 -0.715998,-1.45439 -1.775619,-2.8976 -2.770329,-3.77317 -0.885962,-0.77986 -2.473582,-1.74072 -3.528049,-2.13524 -1.69828,-0.63541 -2.741521,-0.71732 -9.135918,-0.71732 h -7.218712 v 11.81805 11.81806 z"
               id="path2216"
               sodipodi:nodetypes="ccccsscssscssssssscccccssssssssssccccsssscssssssssssssccccccsssssssscccc" />
            <path
               style="fill:#0098d1;fill-opacity:1;stroke-width:0.352778"
               d="m 112.59606,237.81029 h -4.75938 v -26.97263 -26.97265 l 1.35648,-1.42597 c 1.20197,-1.26353 1.54166,-1.42596 2.98202,-1.42596 0.89403,0 2.04598,0.19157 2.55988,0.42572 0.52222,0.23793 2.03585,1.98854 3.43151,3.96875 1.37343,1.94867 4.74551,6.71803 7.4935,10.59858 2.748,3.88056 5.26236,7.46875 5.58747,7.97375 0.58725,0.91222 0.57369,0.94262 -2.0824,4.66655 -1.47042,2.06159 -2.79957,3.82626 -2.95365,3.92149 -0.15409,0.0952 -2.16865,-2.53276 -4.47679,-5.83998 l -4.19663,-6.01313 -0.0913,18.54774 -0.0913,18.54775 z"
               id="path2216-9"
               sodipodi:nodetypes="ccccssssssssscccc" />
            <path
               style="fill:#01934a;fill-opacity:1;stroke-width:0.352778"
               d="m 163.66296,237.6883 c -0.53314,0 -2.59653,-0.0452 -4.58531,-0.10053 l -3.61597,-0.10054 v -18.27331 c 0,-10.05032 -0.099,-18.37233 -0.22006,-18.49336 -0.12104,-0.12104 -0.5721,0.28907 -1.00237,0.91134 -0.43027,0.62227 -1.57892,2.2782 -2.55256,3.67985 -0.97363,1.40165 -1.84549,2.47321 -1.93744,2.38125 -0.092,-0.092 -0.17032,0.0312 -0.17413,0.27377 -0.004,0.24254 -1.30375,2.2666 -2.88878,4.49792 -1.58502,2.23132 -3.79059,5.3423 -4.90126,6.91329 -1.11068,1.57099 -2.38153,3.12949 -2.82411,3.46333 -0.44258,0.33384 -1.36142,0.69732 -2.04187,0.80775 -0.79867,0.1296 -1.70178,-0.0128 -2.548,-0.40185 -0.72094,-0.33143 -1.82675,-1.29892 -2.45734,-2.14996 -0.63059,-0.85104 -1.14653,-1.67598 -1.14653,-1.83321 0,-0.15722 1.18151,-1.94983 2.62557,-3.98358 1.44406,-2.03374 3.70625,-5.20384 5.02708,-7.04465 1.32084,-1.84081 2.99868,-4.26997 3.72855,-5.39813 0.81709,-1.26298 1.48197,-1.95546 1.7302,-1.80203 0.257,0.15882 0.30606,0.092 0.13532,-0.18424 -0.15463,-0.25018 0.0247,-0.7579 0.4242,-1.20103 0.38063,-0.4222 1.3442,-1.74292 2.14127,-2.93494 0.79706,-1.19201 1.73258,-2.45067 2.07892,-2.79702 0.34635,-0.34635 0.61477,-0.72044 0.59648,-0.83131 -0.0183,-0.11087 1.6268,-2.54146 3.65573,-5.40131 2.06904,-2.91639 3.85036,-5.09998 4.0565,-4.97258 0.20526,0.12686 0.26298,0.058 0.13073,-0.156 -0.13024,-0.21073 0.11868,-0.63213 0.55316,-0.93645 0.43447,-0.30431 1.44553,-0.5533 2.24678,-0.5533 0.9323,0 1.88658,0.2896 2.6504,0.80434 0.65645,0.44238 1.39196,1.19644 1.63447,1.67569 0.34099,0.67389 0.4419,6.90745 0.44531,27.50608 l 0.004,26.63472 h -0.96934 z m 26.63552,0.0129 -13.67014,0.0547 v -4.53171 -4.53171 h 11.8007 c 7.24902,0 12.49847,-0.14964 13.60975,-0.38797 1.12956,-0.24225 2.2832,-0.80427 3.07136,-1.49628 0.69426,-0.60957 1.55138,-1.74466 1.90472,-2.52244 0.35333,-0.77778 0.64591,-2.09392 0.65017,-2.92478 0.004,-0.83084 -0.2388,-2.10084 -0.54013,-2.82222 -0.30133,-0.72137 -0.97602,-1.76232 -1.49931,-2.31322 -0.52328,-0.5509 -1.3801,-1.22558 -1.90404,-1.4993 -0.71123,-0.37157 -2.49906,-0.49947 -7.05556,-0.50477 -3.35661,-0.004 -7.10402,-0.15185 -8.32756,-0.32878 -1.22355,-0.17692 -3.25358,-0.80318 -4.51119,-1.39169 -1.33568,-0.62504 -3.16706,-1.90987 -4.40391,-3.08963 -1.36812,-1.30496 -2.47382,-2.77612 -3.12467,-4.15746 -0.55401,-1.17582 -1.18273,-2.9791 -1.39714,-4.00729 -0.21442,-1.02821 -0.38985,-2.63373 -0.38985,-3.56784 0,-0.93411 0.16204,-2.55279 0.36008,-3.59708 0.19804,-1.04429 0.81332,-2.85189 1.36727,-4.0169 0.55396,-1.16501 1.5806,-2.77615 2.28142,-3.58032 0.70082,-0.80417 2.17245,-2.05833 3.27028,-2.78703 1.09783,-0.7287 2.93955,-1.61856 4.09271,-1.97746 1.86812,-0.58142 3.41494,-0.65255 14.19077,-0.65255 h 12.09412 l -0.0429,4.58608 -0.0429,4.58608 -11.66079,3e-5 -11.6608,3e-5 -1.64011,1.04013 c -0.99472,0.63083 -1.92054,1.58982 -2.35277,2.43707 -0.39197,0.76832 -0.81334,2.02648 -0.93638,2.79592 -0.14002,0.87566 -0.0126,2.12511 0.34062,3.34017 0.41058,1.41236 0.94708,2.28698 1.96935,3.21055 0.77277,0.69815 1.76623,1.34664 2.20768,1.4411 0.44145,0.0944 4.1364,0.23485 8.21098,0.31201 6.33327,0.11992 7.69436,0.24425 9.37936,0.85679 1.08407,0.39408 2.45246,0.96547 3.04088,1.26975 0.58842,0.30428 1.89416,1.39329 2.90165,2.42001 1.00748,1.02673 2.28331,2.66053 2.83517,3.63067 0.55187,0.97014 1.25635,2.62614 1.56553,3.68 0.30917,1.05386 0.56213,3.12848 0.56213,4.61027 0,1.48179 -0.25296,3.55642 -0.56213,4.61028 -0.30918,1.05386 -1.02258,2.70986 -1.58535,3.68 -0.56276,0.97014 -1.61948,2.41671 -2.34828,3.21461 -0.72878,0.7979 -1.96027,1.86442 -2.73663,2.37006 -0.77636,0.50564 -2.36386,1.27215 -3.52778,1.70335 -2.04115,0.7562 -2.60114,0.78595 -15.78636,0.83873 z"
               id="path2216-91"
               sodipodi:nodetypes="cscssssscsssssssssssssssssssssssccccccccsssscsssssssssssssssscccccsssssssssssssssssssc" />
          </g>
        </g>
        <rect
           style="fill:#000000;fill-opacity:1;stroke-width:0.126176"
           id="rect24484"
           width="3.175"
           height="79.375"
           x="231.56683"
           y="169.72418" />
      </g>
    </g>
  </g>
</svg>
