<?xml version="1.0" encoding="UTF-8" standalone="no"?>
<!-- Generator: Adobe Illustrator 14.0.0, SVG Export Plug-In  -->

<svg
   version="1.1"
   x="0px"
   y="0px"
   width="214"
   height="93"
   viewBox="-15.737 -18.966 214 93"
   enable-background="new -15.737 -18.966 600 600"
   xml:space="preserve"
   id="svg872"
   sodipodi:docname="logoPantanal.svg"
   inkscape:version="1.1 (c4e8f9e, 2021-05-24)"
   xmlns:inkscape="http://www.inkscape.org/namespaces/inkscape"
   xmlns:sodipodi="http://sodipodi.sourceforge.net/DTD/sodipodi-0.dtd"
   xmlns="http://www.w3.org/2000/svg"
   xmlns:svg="http://www.w3.org/2000/svg"><sodipodi:namedview
   id="namedview874"
   pagecolor="#ffffff"
   bordercolor="#666666"
   borderopacity="1.0"
   inkscape:pageshadow="2"
   inkscape:pageopacity="0.0"
   inkscape:pagecheckerboard="0"
   showgrid="false"
   width="214px"
   inkscape:zoom="1.7597985"
   inkscape:cx="75.86096"
   inkscape:cy="58.245306"
   inkscape:window-width="1600"
   inkscape:window-height="847"
   inkscape:window-x="48"
   inkscape:window-y="25"
   inkscape:window-maximized="0"
   inkscape:current-layer="g5672" />
<defs
   id="defs824">
<clipPath
   clipPathUnits="userSpaceOnUse"
   id="clipPath1453"><rect
     style="fill:#ff0000;stroke-width:0.133261"
     id="rect1455"
     width="92.60437"
     height="51.415684"
     x="41.236622"
     y="53.096931"
     clip-path="none" /></clipPath></defs>

















<polygon
   fill="#008aca"
   points="240.982,392.393 240.73,397.101 242.838,387.068 "
   id="polygon860" />
<polyline
   fill="none"
   stroke="#ffffff"
   stroke-width="0.4784"
   stroke-miterlimit="10"
   points="242.838,387.068 240.978,392.393   240.733,397.104 "
   id="polyline862" />
<line
   fill="none"
   stroke="#ffffff"
   stroke-width="0.4784"
   stroke-miterlimit="10"
   x1="297.85101"
   y1="561.57703"
   x2="295.49799"
   y2="554.51801"
   id="line864" />



<g
   id="g5672"
   transform="translate(-124.18185)"><path
     fill="#744808"
     d="m 128.0878,73.641 0.249,-4.71 1.856,-5.326 0.125,-11.638 5.075,-3.343 -2.722,-1.486 0.368,-5.201 5.676,-0.125 5.469,5.204 0.496,-4.459 2.23,-0.495 3.592,6.562 2.85,0.123 5.57,-11.393 2.972,-0.369 1.983,-20.558 -3.099,-4.581 -0.368,-2.7259996 3.096,-1.854 -1.612,-14.86 -5.325,-1.114 0.248,-4.3360004 -2.973,1.362 -5.943,-4.831 -9.907,5.45 c 0,0 -2.972,-2.971 -3.343,-3.343 -0.373,-0.37 -2.599,5.0770004 -2.599,5.0770004 l -3.469,-0.9910004 -4.335,-4.58 -1.209,-3.673 -4.274,3.423 -5.676,-1.77 -4.497,4.736 6.27,1.835 -0.461,6.7260004 1.223,5.962 8.867,3.208 3.36,9.7809996 -2.295,7.795 -0.456,5.045 -2.446,3.822 c 0,0 -2.599,3.82 -2.599,4.278 0,0.46 3.363,3.976 3.363,3.976 l -0.307,4.127 -2.75,-0.458 -1.223,-2.905 c 0,0 -1.379,5.961 -0.918,6.421 0.459,0.456 5.811,9.474 5.811,9.474 l -1.682,15.59 z"
     id="path856"
     style="fill:#fdf118" /><g
     aria-label="!"
     id="text5617"
     style="font-size:53.3333px;line-height:1.25"
     transform="matrix(1.1301733,0,0,1.1301733,293.72278,16.162195)"><path
       d="M 25.283837,-9.3260083 24.606754,18.772934 h -4.42708 L 19.450507,-9.3260083 Z M 25.023421,29.450011 h -5.312497 v -5.494788 h 5.312497 z"
       style="font-size:53.3333px;line-height:1.25;fill:#fdf118"
       id="path15989-0" /><path
       d="M 25.283837,-9.3260083 24.606754,18.772933 h -4.42708 L 19.450507,-9.3260083 Z M 25.023421,29.45001 h -5.312497 v -5.494788 h 5.312497 z"
       style="fill:#f26f59"
       id="path15989" /></g><g
     id="g263"
     transform="matrix(0.05375314,0,0,0.05375314,106.57966,18.237901)"
     style="font-size:29.3333px;line-height:1.25;fill:#fdf118"><path
       style="fill:#fdca5b;stroke-width:4.17391"
       d="m 663.00418,175.82944 c -4.59131,-1.12854 -10.61338,-3.88975 -13.38238,-6.13602 -2.76901,-2.24624 -7.46466,-2.68212 -10.43479,-0.9686 -2.97012,1.71347 -4.05209,1.62269 -2.40438,-0.2016 1.64772,-1.82446 -5.19377,-9.57045 -15.20331,-17.2133 -38.03019,-29.03821 -50.47854,-81.186658 -29.91987,-125.339866 12.27908,-26.3714081 17.44528,-30.0086644 20.55297,-14.470259 1.31919,6.595964 7.34772,17.365477 13.39674,23.932253 8.52692,9.256779 10.38711,10.065938 8.27859,3.601081 -7.81287,-23.954713 -11.09776,-51.209567 -8.5906,-71.276268 3.46766,-27.754225 22.21769,-66.196419 41.31528,-84.706531 l 14.36643,-13.92448 0.16612,21.44562 c 0.19905,25.697015 10.98988,50.719356 43.62152,101.1518703 27.16047,41.9767587 37.78719,70.7925487 35.71321,96.8411047 -0.81154,10.192695 -0.0401,17.644845 1.71455,16.560375 8.18508,-5.05912 20.14908,-37.219742 22.63007,-60.832256 2.7099,-25.791235 2.81747,-25.972044 8.10093,-13.616577 2.94502,6.886956 5.43929,23.892083 5.54283,37.789188 0.51749,69.455035 -68.18038,123.902815 -135.46391,107.364265 z m -96.39657,-48.11014 -7.95126,-9.39131 9.39131,7.95126 c 8.82551,7.47223 11.29144,10.83135 7.95125,10.83135 -0.79203,0 -5.01812,-4.22609 -9.3913,-9.3913 z M 886.63805,-3.0633088 c 0.20035,-4.8623707 1.18931,-5.8514086 2.52171,-2.5217405 1.20572,3.0130434 1.05746,6.6130434 -0.32932,8.0000012 -1.38699,1.3869538 -2.37345,-1.0782636 -2.19222,-5.4782607 z M 490.11631,-69.845916 c 0.20026,-4.862371 1.18931,-5.851409 2.52174,-2.521741 1.20572,3.013044 1.05743,6.613044 -0.32953,8.000001 -1.38696,1.386954 -2.37346,-1.078263 -2.19223,-5.47826 z M 625.43896,-280.2807 c 8.96658,-9.18261 17.242,-16.69565 18.38983,-16.69565 1.14782,0 -5.24934,7.51304 -14.21592,16.69565 -8.96658,9.18261 -17.242,16.69566 -18.38982,16.69566 -1.14783,0 5.24933,-7.51305 14.21591,-16.69566 z m 99.22378,-8.34782 c 0,-10.33044 0.81398,-14.55652 1.80884,-9.39131 0.99487,5.16522 0.99487,13.61739 0,18.78261 -0.99486,5.16522 -1.80884,0.93913 -1.80884,-9.3913 z"
       id="path267" /><path
       style="fill:#f26f59;stroke-width:4.17391"
       d="m 726.0914,172.32219 c 42.33368,-15.56181 72.70979,-59.15011 72.37669,-103.857182 -0.10355,-13.897105 -2.59782,-30.902232 -5.54283,-37.789188 -5.28346,-12.355467 -5.39103,-12.174658 -8.10094,13.616577 -2.48099,23.612514 -14.44498,55.773143 -22.63007,60.832253 -1.75454,1.08447 -2.52609,-6.367677 -1.71455,-16.560372 C 762.55369,62.515722 751.92697,33.699932 724.7665,-8.2768266 692.13485,-58.709341 681.34402,-83.731682 681.14497,-109.42869 l -0.16612,-21.44563 -14.36642,13.92449 c -19.09759,18.510105 -37.84762,56.952299 -41.31528,84.706524 -2.50717,20.066701 0.77773,47.321555 8.5906,71.276268 2.10852,6.464857 0.24835,5.655698 -8.2786,-3.601081 -6.04901,-6.566776 -12.08967,-17.396903 -13.42368,-24.066954 -3.18599,-15.9299638 -9.9297,-10.43164321 -22.20583,18.104987 -19.80156,46.029974 -3.81706,97.498206 39.63323,127.614486 23.17182,16.06084 13.93085,14.98068 -22.41934,-2.62059 -25.64678,-12.41852 -65.41005,-53.4255 -88.0868,-90.84196 -16.57025,-27.340782 -28.76135,-69.2550871 -29.00686,-99.728638 -0.35496,-44.059274 21.49736,-112.180802 44.85403,-139.826082 l 8.81603,-10.43478 0.13886,9.95052 c 0.21133,15.1442 8.41412,39.43053 17.16198,50.81229 l 7.83474,10.19371 0.0928,-27.80205 c 0.10454,-31.31516 10.56941,-69.37427 26.59398,-96.71811 17.51358,-29.88466 67.72407,-73.55775 107.59851,-93.58918 19.39677,-9.74421 36.36721,-17.71675 37.7121,-17.71675 1.34489,0 -1.54519,7.98261 -6.42239,17.73913 -6.6836,13.3701 -8.77034,24.93519 -8.47257,46.95652 0.48254,35.68524 8.16318,56.39517 44.40381,119.72944 28.83799,50.39738 44.88228,88.469951 45.03305,106.861919 l 0.0928,11.321684 8.08595,-10.434782 c 11.82544,-15.260523 25.85263,-55.231051 28.9849,-82.592481 l 2.72936,-23.8423 9.31238,14.6087 c 17.42588,27.33674 23.68904,56.714874 23.58077,110.608689 -0.10977,54.61182 -5.32975,82.499949 -22.68676,121.204172 -22.02029,49.102749 -78.71003,90.152929 -131.5835,95.282379 l -25.04348,2.42951 z"
       id="path265" /></g><g
     id="g5645"
     transform="matrix(1.0000211,0,0,1.0000211,-0.00347168,-1.6942275)"><g
       id="g452"
       transform="translate(5.69485,-18.847102)"><path
         d="m 198.65551,67.909241 h -6.21614 l 1.31771,-3.766923 h 3.43749 l -5.08463,-13.162745 h 6.17317 l 7.57682,19.006488 h -6.40234 z m -7.90624,2.07682 h -6.11588 l 6.78906,-18.147114 2.80728,7.548168 z"
         style="font-size:29.3333px;line-height:1.25;font-family:'Black Ops One';-inkscape-font-specification:'Black Ops One';fill:#fdf118"
         id="path16945" /><path
         d="M 207.66461,69.986061 V 50.979573 h 6.33073 v 19.006488 z m 7.33333,0 v -3.795568 h 3.13671 v -2.406248 h 5.74349 v 6.201816 z"
         style="font-size:29.3333px;line-height:1.25;font-family:'Black Ops One';-inkscape-font-specification:'Black Ops One';fill:#fdf118"
         id="path16947" /><path
         d="m 232.15678,62.180081 v 7.80598 h -6.33073 V 50.979573 h 6.33073 v 7.533845 h 6.05859 v 3.666663 z m 1.0026,-7.519523 v -3.680985 h 9.89713 v 5.499993 h -5.95833 v -1.819008 z m 0,15.325503 v -3.795568 h 3.5664 v -1.904946 h 6.33073 v 5.700514 z"
         style="font-size:29.3333px;line-height:1.25;font-family:'Black Ops One';-inkscape-font-specification:'Black Ops One';fill:#fdf118"
         id="path16949" /><path
         d="M 246.10728,69.986061 V 50.979573 h 6.33073 v 19.006488 z m 7.33333,-15.21092 v -3.795568 h 7.23306 l 3.8099,3.795568 v 5.700514 l -2.92188,2.921872 -0.20052,-0.401041 -5.944,0.787759 0.22917,0.501302 h -2.20573 v -3.680985 h 4.7552 v -5.829421 z m 11.68749,15.21092 h -6.76041 l -2.72135,-5.700514 h 5.02733 l 0.88802,-0.88802 z"
         style="font-size:29.3333px;line-height:1.25;font-family:'Black Ops One';-inkscape-font-specification:'Black Ops One';fill:#fdf118"
         id="path16951" /><path
         d="m 271.44449,56.107171 h 6.58853 v 13.87889 h -6.58853 z m -4.95572,-5.127598 h 16.49998 v 4.139318 h -16.49998 z"
         style="font-size:29.3333px;line-height:1.25;font-family:'Black Ops One';-inkscape-font-specification:'Black Ops One';fill:#fdf118"
         id="path16953" /><path
         d="m 295.36373,67.909241 h -6.21613 l 1.3177,-3.766923 h 3.4375 l -5.08463,-13.162745 h 6.17317 l 7.57681,19.006488 h -6.40233 z m -7.90624,2.07682 h -6.11587 l 6.78905,-18.147114 2.80729,7.548168 z"
         style="font-size:29.3333px;line-height:1.25;font-family:'Black Ops One';-inkscape-font-specification:'Black Ops One';fill:#fdf118"
         id="path16955" /></g><g
       id="g444"
       transform="matrix(1.0000398,0,0,1.0000398,-33.684809,-10.715211)"><path
         d="m 215.07626,34.960424 h -6.21614 l 1.31771,-3.766923 h 3.4375 L 208.5307,18.030756 h 6.17317 l 7.57681,19.006488 h -6.40234 z m -7.90624,2.07682 h -6.11588 l 6.78906,-18.147114 2.80729,7.548168 z"
         style="font-size:29.3333px;line-height:1.25;font-family:'Black Ops One';-inkscape-font-specification:'Black Ops One';fill:#fdf118"
         id="path16959" /><path
         d="m 242.33274,37.037244 h -6.73177 L 224.08536,18.030756 h 6.68879 z m -18.24738,0 V 19.835441 l 5.51432,9.03775 v 8.164053 z m 18.24738,-19.006488 v 17.201803 l -5.51432,-9.080719 v -8.121084 z"
         style="font-size:29.3333px;line-height:1.25;font-family:'Black Ops One';-inkscape-font-specification:'Black Ops One';fill:#fdf118"
         id="path16961" /><path
         d="m 249.70903,23.158354 h 6.58854 v 13.87889 h -6.58854 z m -4.95572,-5.127598 h 16.49998 v 4.139318 h -16.49998 z"
         style="font-size:29.3333px;line-height:1.25;font-family:'Black Ops One';-inkscape-font-specification:'Black Ops One';fill:#fdf118"
         id="path16963" /><path
         d="m 273.62828,34.960424 h -6.21614 l 1.31771,-3.766923 h 3.43749 l -5.08463,-13.162745 h 6.17317 l 7.57682,19.006488 h -6.40234 z m -7.90624,2.07682 h -6.11588 l 6.78905,-18.147114 2.80729,7.548168 z"
         style="font-size:29.3333px;line-height:1.25;font-family:'Black Ops One';-inkscape-font-specification:'Black Ops One';fill:#fdf118"
         id="path16965" /><path
         d="m 300.88475,37.037244 h -6.73176 L 282.63738,18.030756 h 6.68879 z m -18.24737,0 V 19.835441 l 5.51431,9.03775 v 8.164053 z m 18.24737,-19.006488 v 17.201803 l -5.51431,-9.080719 v -8.121084 z"
         style="font-size:29.3333px;line-height:1.25;font-family:'Black Ops One';-inkscape-font-specification:'Black Ops One';fill:#fdf118"
         id="path16967" /><path
         d="m 316.71156,34.960424 h -6.21614 l 1.31771,-3.766923 h 3.4375 L 310.166,18.030756 h 6.17317 l 7.57681,19.006488 h -6.40234 z m -7.90624,2.07682 h -6.11588 l 6.78906,-18.147114 2.80729,7.548168 z"
         style="font-size:29.3333px;line-height:1.25;font-family:'Black Ops One';-inkscape-font-specification:'Black Ops One';fill:#fdf118"
         id="path16969" /><path
         d="M 325.72068,37.037244 V 18.030756 h 6.33072 v 19.006488 z m 7.33332,0 v -3.795568 h 3.13672 v -2.406248 h 5.74348 v 6.201816 z"
         style="font-size:29.3333px;line-height:1.25;font-family:'Black Ops One';-inkscape-font-specification:'Black Ops One';fill:#fdf118"
         id="path16971" /></g><g
       aria-label="EM"
       id="text1944"
       style="font-size:29.3345px;line-height:1.25;fill:#fdf118;stroke-width:0.733362"
       transform="matrix(0.46127859,0,0,0.46127859,75.232729,24.887149)"><path
         d="m 199.53713,49.104665 v 7.8063 h -6.33098 V 37.903699 h 6.33098 v 7.534154 h 6.05884 v 3.666812 z m 1.00265,-7.51983 v -3.681136 h 9.89753 v 5.500219 h -5.95857 v -1.819083 z m 0,15.32613 v -3.795724 h 3.56654 v -1.905023 h 6.33099 v 5.700747 z"
         style="font-family:'Black Ops One';-inkscape-font-specification:'Black Ops One'"
         id="path5584" /><path
         d="m 213.50253,37.903699 h 6.73204 l 5.09916,8.450857 4.01058,-6.875274 v 9.568089 l -4.56919,7.863594 z m 16.7728,19.007266 V 37.903699 h 6.33099 v 19.007266 z m -16.78712,0 V 39.665488 l 5.9156,9.926176 v 7.319301 z"
         style="font-family:'Black Ops One';-inkscape-font-specification:'Black Ops One'"
         id="path5586" /></g></g></g></svg>
