<?xml version="1.0" encoding="UTF-8" standalone="no"?>
<!-- Created with Inkscape (http://www.inkscape.org/) -->

<svg
   width="64"
   height="64"
   viewBox="0 0 16.933333 16.933334"
   version="1.1"
   id="svg5"
   inkscape:version="1.1 (c4e8f9e, 2021-05-24)"
   sodipodi:docname="checked.svg"
   xmlns:inkscape="http://www.inkscape.org/namespaces/inkscape"
   xmlns:sodipodi="http://sodipodi.sourceforge.net/DTD/sodipodi-0.dtd"
   xmlns="http://www.w3.org/2000/svg"
   xmlns:svg="http://www.w3.org/2000/svg">
  <sodipodi:namedview
     id="namedview7"
     pagecolor="#ffffff"
     bordercolor="#666666"
     borderopacity="1.0"
     inkscape:pageshadow="2"
     inkscape:pageopacity="0.0"
     inkscape:pagecheckerboard="0"
     inkscape:document-units="mm"
     showgrid="false"
     units="px"
     width="64px"
     inkscape:zoom="2.7135341"
     inkscape:cx="33.167079"
     inkscape:cy="36.668049"
     inkscape:window-width="1465"
     inkscape:window-height="997"
     inkscape:window-x="0"
     inkscape:window-y="925"
     inkscape:window-maximized="0"
     inkscape:current-layer="g1701" />
  <defs
     id="defs2" />
  <g
     inkscape:label="Camada 1"
     inkscape:groupmode="layer"
     id="layer1">
    <g
       id="g1473"
       transform="matrix(0.09380878,0,0,0.09380877,1.9968481,9.1395149)">
      <g
         id="g1701">
        <g
           id="g627"
           transform="matrix(1.8983691,0,0,1.898435,30.564399,1.4341088)">
          <path
             style="fill:#45c38e;fill-opacity:1;stroke-width:0.264583"
             d="M 14.864836,42.841474 C -1.1319143,40.882716 -15.22281,31.095835 -22.262063,17.054851 -25.914838,9.768771 -27.31332,3.7987288 -27.31332,-4.50869 c 0,-6.986357 0.91985,-11.890134 3.35006,-17.859374 8.829694,-21.688075 31.7421574,-33.640936 54.698846,-28.535024 17.868372,3.974193 32.071996,18.337406 35.942461,36.346301 2.272951,10.575819 1.001186,21.0062703 -3.75757,30.817888 -6.786263,13.991941 -19.38162,23.433176 -34.958767,26.204411 -2.830915,0.503632 -10.302586,0.718114 -13.096874,0.375962 z"
             id="path631"
             sodipodi:nodetypes="sssssssss" />
        </g>
        <path
           style="fill:#000000;stroke-width:8.46136196;stroke:#000000;stroke-opacity:1;stroke-miterlimit:4;stroke-dasharray:none"
           d="m 54.391427,22.422675 c -1.09912,-0.59682 -26.61793,-26.11171 -27.18695,-27.18276 -0.27835,-0.52394 -0.5061,-1.6514 -0.5061,-2.50547 0,-3.85309 4.42198,-6.69873 7.79085,-5.01357 0.66274,0.33151 5.92746,5.30881 11.69938,11.06065 l 10.4944,10.4579 22.8431,-22.82133 c 12.65532,-12.64326 23.286013,-22.98674 23.836213,-23.1922 1.68075,-0.62766 3.90241,-0.44734 5.21653,0.4234 1.73407,1.149 2.91857,3.7057 2.61023,5.63407 -0.22901,1.43222 -1.53929,2.80999 -25.697263,27.02102 -14.00077,14.03152 -25.88462,25.73933 -26.40856,26.01736 -1.11768,0.5931 -3.68379,0.6483 -4.69183,0.10093 z"
           id="path1475"
           sodipodi:nodetypes="ssssscsssssss" />
      </g>
    </g>
  </g>
</svg>
