<?xml version="1.0" encoding="UTF-8" standalone="no"?>
<svg
   width="85"
   height="85"
   viewBox="0 0 85 85"
   fill="none"
   version="1.1"
   id="svg832"
   sodipodi:docname="fireSpotIcon.svg"
   inkscape:version="1.1 (c4e8f9e, 2021-05-24)"
   xmlns:inkscape="http://www.inkscape.org/namespaces/inkscape"
   xmlns:sodipodi="http://sodipodi.sourceforge.net/DTD/sodipodi-0.dtd"
   xmlns="http://www.w3.org/2000/svg"
   xmlns:svg="http://www.w3.org/2000/svg">
  <defs
     id="defs836" />
  <sodipodi:namedview
     id="namedview834"
     pagecolor="#ffffff"
     bordercolor="#666666"
     borderopacity="1.0"
     inkscape:pageshadow="2"
     inkscape:pageopacity="0.0"
     inkscape:pagecheckerboard="0"
     showgrid="false"
     inkscape:zoom="3.476075"
     inkscape:cx="41.138353"
     inkscape:cy="38.693066"
     inkscape:window-width="1465"
     inkscape:window-height="847"
     inkscape:window-x="48"
     inkscape:window-y="25"
     inkscape:window-maximized="0"
     inkscape:current-layer="svg832" />
  <circle
     cx="42.5"
     cy="42.5"
     r="42.5"
     fill="#FFD97D"
     fill-opacity="0.95"
     id="circle824" />
  <circle
     cx="42"
     cy="43"
     r="30"
     fill="#FFBF24"
     id="circle826" />
  <g
     id="g1494"
     transform="matrix(0.37900454,0,0,0.38632768,2.4916067,-18.055044)">
    <path
       style="fill:#f26f59;stroke-width:1.10435"
       d="m 59.466028,193.0522 c -9.364883,-17.57032 -8.275523,-38.4158 2.977491,-56.9759 l 4.017406,-6.62608 0.749534,5.1958 c 0.708979,4.91467 4.939569,14.13028 6.486758,14.13028 0.393669,0 0.494777,-2.6648 0.224682,-5.92178 -1.640508,-19.78237 11.991067,-40.08506 34.820231,-51.860808 5.61837,-2.89807 10.21497,-5.121583 10.21466,-4.94114 -3e-4,0.180443 -1.04741,3.06134 -2.32691,6.401992 -1.8558,4.845351 -2.19831,7.52585 -1.69335,13.252176 0.65456,7.42277 1.25495,8.79353 17.17149,39.20434 3.17899,6.07392 6.05863,13.15555 6.3992,15.73696 0.34056,2.58141 0.9842,4.69348 1.43029,4.69348 1.88389,0 8.00177,-16.34579 8.6788,-23.18808 l 0.71061,-7.18149 2.3727,3.86522 c 4.98831,8.12618 6.29983,14.1267 6.27572,28.71304 -0.0254,15.35266 0.44861,23.04016 -7.61493,35.91259 -24.60829,32.88428 -62.598787,34.28456 -90.894382,-10.4106 z"
       id="path916"
       sodipodi:nodetypes="cscssssssssssscsscc" />
    <path
       style="fill:#fdcf5a;stroke-width:1.10435"
       d="m 97.301519,224.74971 c -16.018683,-7.84691 -22.282138,-23.75904 -15.150857,-38.4903 2.895987,-5.98231 4.068007,-6.45387 5.040116,-2.02788 0.381468,1.73681 2.224711,4.59431 4.096098,6.35 2.636603,2.4736 3.133238,2.67072 2.20626,0.87569 -0.657943,-1.27406 -1.695426,-5.41601 -2.305519,-9.20434 -1.853356,-11.50829 1.355771,-22.60906 9.139003,-31.61292 l 3.67187,-4.2477 0.75359,5.68084 c 1.01782,7.67274 2.75171,11.49816 11.64832,25.69933 7.99485,12.76174 10.74749,20.53183 9.65613,27.25712 -0.62088,3.82604 -0.58912,3.86619 1.53689,1.94217 2.49467,-2.25765 5.42009,-11.20925 5.5516,-16.9876 l 0.0897,-3.94086 1.51702,3.31304 c 4.45812,9.73616 -0.78375,25.23258 -10.88279,32.17253 -9.47078,6.50823 -17.79618,7.51755 -26.567421,3.22088 z"
       id="path920" />
  </g>
</svg>
