<svg width="22" height="22" viewBox="0 0 22 22" fill="none" xmlns="http://www.w3.org/2000/svg">
<path fill-rule="evenodd" clip-rule="evenodd" d="M12.3818 14.5472L19.6735 21.8396L21.6177 19.8953L14.3261 12.603L12.3818 14.5472Z" fill="#070C2B"/>
<path fill-rule="evenodd" clip-rule="evenodd" d="M8.75 16.8772C7.11831 16.8772 5.52325 16.3933 4.16655 15.4868C2.80984 14.5803 1.75242 13.2918 1.128 11.7843C0.503575 10.2768 0.340197 8.61805 0.658525 7.01771C0.976853 5.41736 1.76259 3.94735 2.91637 2.79357C4.07016 1.63979 5.54017 0.85405 7.14051 0.535722C8.74085 0.217394 10.3997 0.380772 11.9071 1.00519C13.4146 1.62962 14.7031 2.68704 15.6096 4.04375C16.5161 5.40045 17 6.9955 17 8.6272C17 10.8152 16.1308 12.9137 14.5836 14.4608C13.0365 16.008 10.938 16.8772 8.75 16.8772ZM8.75 3.1272C7.66221 3.1272 6.59884 3.44977 5.69437 4.05412C4.7899 4.65847 4.08495 5.51745 3.66867 6.52244C3.25238 7.52743 3.14347 8.6333 3.35568 9.7002C3.5679 10.7671 4.09173 11.7471 4.86092 12.5163C5.6301 13.2855 6.61011 13.8093 7.67701 14.0215C8.7439 14.2337 9.84977 14.1248 10.8548 13.7085C11.8598 13.2923 12.7187 12.5873 13.3231 11.6828C13.9274 10.7784 14.25 9.715 14.25 8.6272C14.25 7.16851 13.6705 5.76956 12.6391 4.73811C11.6076 3.70666 10.2087 3.1272 8.75 3.1272Z" fill="#FFB400"/>
</svg>
