<svg width="85" height="85" viewBox="0 0 85 85" fill="none" xmlns="http://www.w3.org/2000/svg">
<circle cx="42.5" cy="42.5" r="42.5" fill="#FFD97D" fill-opacity="0.95"/>
<circle cx="42" cy="43" r="30" fill="#FFBF24"/>
<rect x="21.9551" y="26.7879" width="42.0454" height="31.5341" fill="#A9D67C"/>
<path d="M49.5776 41.784L22.1992 27.2769V58.322H40.1196L49.5776 41.784Z" fill="#C3E678"/>
<ellipse cx="40.4989" cy="30.3499" rx="5.97157" ry="4.71439" fill="white"/>
<path d="M40.0763 24.3783C35.9702 24.3783 32.6416 27.3555 32.6416 31.0283C32.6416 37.6782 40.0763 42.1115 40.0763 42.1115C40.0763 42.1115 47.511 37.6782 47.511 31.0283C47.511 27.3555 44.1823 24.3783 40.0763 24.3783ZM40.0763 34.1949C38.1211 34.1949 36.536 32.7771 36.536 31.0283C36.536 29.2794 38.1211 27.8616 40.0763 27.8616C42.0315 27.8616 43.6166 29.2794 43.6166 31.0283C43.6166 32.7771 42.0315 34.1949 40.0763 34.1949Z" fill="#FF6464"/>
<path d="M40.0763 24.3783C35.9702 24.3783 32.6416 27.3555 32.6416 31.0283C32.6416 37.6782 40.0763 42.1115 40.0763 42.1115C40.0763 42.1115 35.1199 38.3115 35.1199 30.7116C35.1199 27.0389 37.9255 24.3783 40.0763 24.3783Z" fill="#D2555A"/>
</svg>
