<?xml version="1.0" encoding="UTF-8" standalone="no"?>
<!-- Created with Inkscape (http://www.inkscape.org/) -->

<svg
   width="300"
   height="300"
   viewBox="0 0 79.374999 79.374999"
   version="1.1"
   id="svg5"
   inkscape:version="1.1 (c4e8f9e, 2021-05-24)"
   sodipodi:docname="menu.svg"
   xmlns:inkscape="http://www.inkscape.org/namespaces/inkscape"
   xmlns:sodipodi="http://sodipodi.sourceforge.net/DTD/sodipodi-0.dtd"
   xmlns="http://www.w3.org/2000/svg"
   xmlns:svg="http://www.w3.org/2000/svg">
  <sodipodi:namedview
     id="namedview7"
     pagecolor="#ffffff"
     bordercolor="#666666"
     borderopacity="1.0"
     inkscape:pageshadow="2"
     inkscape:pageopacity="0.0"
     inkscape:pagecheckerboard="0"
     inkscape:document-units="mm"
     showgrid="false"
     units="px"
     width="300px"
     inkscape:zoom="0.67081229"
     inkscape:cx="396.53418"
     inkscape:cy="561.25984"
     inkscape:window-width="1465"
     inkscape:window-height="997"
     inkscape:window-x="0"
     inkscape:window-y="25"
     inkscape:window-maximized="0"
     inkscape:current-layer="layer1" />
  <defs
     id="defs2">
    <clipPath
       clipPathUnits="userSpaceOnUse"
       id="clipPath1453">
      <rect
         style="fill:#ff0000;stroke-width:0.133261"
         id="rect1455"
         width="92.60437"
         height="51.415684"
         x="41.236622"
         y="53.096931"
         clip-path="none" />
    </clipPath>
  </defs>
  <g
     inkscape:label="Camada 1"
     inkscape:groupmode="layer"
     id="layer1">
    <g
       id="g995"
       transform="matrix(0.59837261,0,0,0.59837261,-23.087875,-49.174539)">
      <path
         style="fill:#8c8c8c;fill-opacity:1;stroke-width:0.259184"
         d="m 51.994269,214.67397 c 0.187098,-0.0749 0.410644,-0.0657 0.496769,0.0205 0.08612,0.0861 -0.06696,0.14738 -0.340179,0.13613 -0.301934,-0.0124 -0.363349,-0.0739 -0.15659,-0.15659 z m 105.487751,0 c 0.1871,-0.0749 0.41065,-0.0657 0.49677,0.0205 0.0861,0.0861 -0.0669,0.14738 -0.34018,0.13613 -0.30193,-0.0124 -0.36335,-0.0739 -0.15659,-0.15659 z M 38.585777,201.22228 c 0.01244,-0.30194 0.07385,-0.36335 0.15659,-0.15659 0.07487,0.18709 0.06566,0.41064 -0.02046,0.49677 -0.08612,0.0861 -0.147382,-0.067 -0.136128,-0.34018 z m 132.442853,0 c 0.0124,-0.30194 0.0739,-0.36335 0.15659,-0.15659 0.0749,0.18709 0.0657,0.41064 -0.0204,0.49677 -0.0861,0.0861 -0.14738,-0.067 -0.13613,-0.34018 z M 38.606239,198.26326 c 0,-0.35637 0.05883,-0.50216 0.130728,-0.32398 0.0719,0.17819 0.0719,0.46977 0,0.64796 -0.0719,0.17819 -0.130728,0.0324 -0.130728,-0.32398 z m 132.442851,0 c 0,-0.35637 0.0588,-0.50216 0.13073,-0.32398 0.0719,0.17819 0.0719,0.46977 0,0.64796 -0.0719,0.17819 -0.13073,0.0324 -0.13073,-0.32398 z M 42.193886,189.88829 c 0,-0.0446 0.379057,-0.42367 0.842347,-0.84235 l 0.842347,-0.76125 -0.761246,0.84235 c -0.709588,0.78519 -0.923448,0.96148 -0.923448,0.76125 z m 124.521454,-0.76125 -0.76125,-0.84235 0.84235,0.76125 c 0.78518,0.70959 0.96148,0.92345 0.76124,0.92345 -0.0446,0 -0.42366,-0.37906 -0.84234,-0.84235 z M 51.475902,163.3556 c 0.187098,-0.0749 0.410644,-0.0657 0.496768,0.0204 0.08613,0.0861 -0.06696,0.14738 -0.340178,0.13613 -0.301934,-0.0124 -0.36335,-0.0738 -0.15659,-0.15659 z m 106.524488,0 c 0.1871,-0.0749 0.41065,-0.0657 0.49677,0.0204 0.0861,0.0861 -0.067,0.14738 -0.34018,0.13613 -0.30193,-0.0124 -0.36335,-0.0738 -0.15659,-0.15659 z M 38.606239,150.0551 c 0,-0.35638 0.05883,-0.50217 0.130728,-0.32398 0.0719,0.17819 0.0719,0.46977 0,0.64796 -0.0719,0.17819 -0.130728,0.0324 -0.130728,-0.32398 z m 132.442851,0 c 0,-0.35638 0.0588,-0.50217 0.13073,-0.32398 0.0719,0.17819 0.0719,0.46977 0,0.64796 -0.0719,0.17819 -0.13073,0.0324 -0.13073,-0.32398 z M 38.606239,146.9449 c 0,-0.35638 0.05883,-0.50217 0.130728,-0.32398 0.0719,0.17819 0.0719,0.46977 0,0.64796 -0.0719,0.17819 -0.130728,0.0324 -0.130728,-0.32398 z m 132.442851,0 c 0,-0.35638 0.0588,-0.50217 0.13073,-0.32398 0.0719,0.17819 0.0719,0.46977 0,0.64796 -0.0719,0.17819 -0.13073,0.0324 -0.13073,-0.32398 z M 51.475902,133.54948 c 0.187098,-0.0749 0.410644,-0.0657 0.496768,0.0205 0.08613,0.0861 -0.06696,0.14738 -0.340178,0.13613 -0.301934,-0.0124 -0.36335,-0.0739 -0.15659,-0.15659 z m 106.524488,0 c 0.1871,-0.0749 0.41065,-0.0657 0.49677,0.0205 0.0861,0.0861 -0.067,0.14738 -0.34018,0.13613 -0.30193,-0.0124 -0.36335,-0.0739 -0.15659,-0.15659 z m -115.174849,-25.80611 -0.761246,-0.84235 0.842347,0.76125 c 0.785185,0.70958 0.961481,0.92344 0.761246,0.92344 -0.04461,0 -0.423662,-0.37905 -0.842347,-0.84234 z m 123.258139,0.76124 c 0,-0.0446 0.37906,-0.42366 0.84235,-0.84234 l 0.84235,-0.76125 -0.76125,0.84235 c -0.70959,0.78518 -0.92345,0.96148 -0.92345,0.76124 z M 38.606239,98.736734 c 0,-0.356378 0.05883,-0.502168 0.130728,-0.32398 0.0719,0.178189 0.0719,0.469771 0,0.64796 -0.0719,0.178188 -0.130728,0.0324 -0.130728,-0.32398 z m 132.442851,0 c 0,-0.356378 0.0588,-0.502168 0.13073,-0.32398 0.0719,0.178189 0.0719,0.469771 0,0.64796 -0.0719,0.178188 -0.13073,0.0324 -0.13073,-0.32398 z M 38.585777,95.734523 c 0.01244,-0.301934 0.07385,-0.363349 0.15659,-0.15659 0.07487,0.187098 0.06566,0.410644 -0.02046,0.496769 -0.08612,0.08612 -0.147382,-0.06696 -0.136128,-0.340179 z m 132.442853,0 c 0.0124,-0.301934 0.0739,-0.363349 0.15659,-0.15659 0.0749,0.187098 0.0657,0.410644 -0.0204,0.496769 -0.0861,0.08612 -0.14738,-0.06696 -0.13613,-0.340179 z M 51.994269,82.231111 c 0.187098,-0.07487 0.410644,-0.06566 0.496769,0.02046 0.08612,0.08612 -0.06696,0.147382 -0.340179,0.136128 -0.301934,-0.01244 -0.363349,-0.07385 -0.15659,-0.15659 z m 105.487751,0 c 0.1871,-0.07487 0.41065,-0.06566 0.49677,0.02046 0.0861,0.08612 -0.0669,0.147382 -0.34018,0.136128 -0.30193,-0.01244 -0.36335,-0.07385 -0.15659,-0.15659 z"
         id="path999" />
      <path
         style="fill:#fdf118;fill-opacity:1;stroke-width:0.259184"
         d="m 51.394907,214.58989 c -3.15277,-0.48973 -5.996674,-1.94777 -8.308682,-4.25978 -1.81573,-1.81573 -2.939359,-3.67358 -3.771059,-6.23521 -0.788989,-2.43009 -0.792061,-6.23057 -0.007,-8.68266 1.612165,-5.03559 5.909998,-9.04029 10.986603,-10.23725 2.439389,-0.57516 106.803781,-0.57516 109.243171,0 5.0766,1.19696 9.37444,5.20166 10.9866,10.23725 0.78505,2.45209 0.78197,6.25257 -0.007,8.68266 -1.57791,4.85995 -4.89799,8.22827 -9.87668,10.02018 l -1.68469,0.60635 -53.13266,0.0349 c -29.222958,0.0192 -53.715815,-0.0557 -54.42857,-0.16642 z M 50.487764,163.1283 c -5.274407,-1.13689 -9.750635,-5.34176 -11.295741,-10.61095 -0.610219,-2.081 -0.610219,-5.9537 0,-8.0347 1.153804,-3.93476 4.161639,-7.58094 7.667169,-9.29436 3.732128,-1.82417 -0.07374,-1.71194 58.057148,-1.71194 45.17586,0 52.73734,0.053 54.29897,0.38091 5.38424,1.13044 9.86227,5.29493 11.42534,10.62539 0.61022,2.081 0.61022,5.9537 0,8.0347 -1.15381,3.93475 -4.16164,7.58093 -7.66717,9.29435 -3.73452,1.82535 0.0966,1.71369 -58.18674,1.69585 -44.098139,-0.0135 -52.886967,-0.0749 -54.298976,-0.37925 z m -0.31112,-51.31545 c -4.977667,-1.207 -9.27597,-5.25084 -10.868496,-10.2251 -0.785043,-2.452078 -0.781971,-6.252567 0.007,-8.682649 0.8317,-2.56163 1.955329,-4.419482 3.771059,-6.235212 1.803777,-1.803776 3.650294,-2.925171 6.235212,-3.786661 l 1.814286,-0.604657 h 53.780615 53.78061 l 1.81428,0.604657 c 2.58492,0.86149 4.43144,1.982885 6.23522,3.786661 1.81572,1.81573 2.93935,3.673582 3.77105,6.235212 0.78899,2.430082 0.79207,6.230571 0.007,8.682649 -1.61217,5.0356 -5.91,9.0403 -10.9866,10.23726 -2.35133,0.55439 -107.072805,0.54275 -109.361279,-0.0122 z"
         id="path997" />
    </g>
  </g>
</svg>
