<svg width="85" height="85" viewBox="0 0 85 85" fill="none" xmlns="http://www.w3.org/2000/svg">
<circle cx="42.5" cy="42.5" r="42.5" fill="#FFD97D" fill-opacity="0.95"/>
<circle cx="42" cy="43" r="30" fill="#FFBF24"/>
<g clip-path="url(#clip0_96:39)">
<path d="M52.6609 48.3615L63.8794 41.8852L69.9569 52.6224L56.1189 61.3672L52.6609 48.3615Z" fill="#F3D55B"/>
<path d="M33.8745 22.8381L48.3667 15.2264L54.6267 25.8582L43.4088 32.3357L33.8745 22.8381Z" fill="#F3D55B"/>
<path d="M53.09 41.7033L56.2947 39.853L59.071 44.6604L55.866 46.5115L53.09 41.7033Z" fill="#556080"/>
<path d="M46.6125 30.4846L49.8172 28.6342L52.5935 33.4416L49.3886 35.2927L46.6125 30.4846Z" fill="#556080"/>
<path d="M31.2076 50.0637C27.8859 44.3104 26.2694 39.0255 27.5974 38.2587C28.9244 37.4926 32.6938 41.5354 36.0158 47.2878C39.3365 53.0408 40.9532 58.3258 39.6259 59.0929C38.2979 59.8595 34.5294 55.8171 31.2076 50.0637Z" fill="#95A5A5"/>
<path d="M36.254 46.3946C36.4828 46.4559 36.6881 46.6048 36.8157 46.8258C37.0715 47.2689 36.9201 47.8338 36.477 48.0896L27.3275 53.3721C26.8844 53.6279 26.3187 53.4763 26.0637 53.0335C25.8076 52.5913 25.9592 52.0255 26.4023 51.7697L35.5519 46.4872C35.773 46.3595 36.0253 46.3333 36.254 46.3946Z" fill="#E6E7E8"/>
<path d="M25.2622 53.4959C24.7513 52.611 25.0545 51.4794 25.9394 50.9685C26.8244 50.4575 27.956 50.7607 28.4669 51.6457C28.9778 52.5307 28.6746 53.6622 27.7897 54.1732C26.9047 54.6842 25.7731 54.381 25.2622 53.4959Z" fill="#95A5A5"/>
<path d="M15.7253 47.6702C16.2186 47.8024 16.512 48.3092 16.3796 48.8034C14.663 55.2097 18.4787 61.8186 24.885 63.5352C25.3783 63.6674 25.6717 64.1742 25.5393 64.6684C25.4068 65.1627 24.8994 65.4548 24.406 65.3226C17.0139 63.3419 12.6114 55.7165 14.5921 48.3244C14.7245 47.8302 15.232 47.538 15.7253 47.6702Z" fill="#E6E7E8"/>
<path d="M21.0884 49.107C21.5817 49.2392 21.8751 49.746 21.7427 50.2403C20.8185 53.6892 22.8727 57.2484 26.3225 58.1728C26.8158 58.305 27.1092 58.8118 26.9768 59.306C26.8443 59.8002 26.3369 60.0924 25.8436 59.9603C21.4088 58.772 18.7667 54.1969 19.9552 49.7613C20.0876 49.2671 20.5951 48.9749 21.0884 49.107Z" fill="#E6E7E8"/>
<path d="M36.0152 47.2883C39.3369 53.0417 40.9535 58.3266 39.6254 59.0935C44.0508 56.5377 44.9463 49.8032 41.6246 44.0498C38.3029 38.2965 32.0229 35.7048 27.5968 38.2594C28.9249 37.4924 32.6935 41.535 36.0152 47.2883Z" fill="#E6E7E8"/>
<path d="M54.413 29.188L55.9406 28.306C56.8676 27.7708 58.0518 28.0881 58.5869 29.0151L63.1269 36.8785C63.6614 37.8043 63.3438 38.9894 62.418 39.5239L60.8902 40.4068L54.413 29.188Z" fill="#556080"/>
<path d="M41.6246 44.0497C43.0071 46.4443 43.6485 49.0051 43.62 51.3673C45.8607 49.6151 47.1495 46.2169 45.7553 43.8022L43.9044 40.5963C42.5102 38.1814 38.9229 37.5986 36.2851 38.663C38.3451 39.8192 40.2422 41.6552 41.6246 44.0497Z" fill="#556080"/>
<path d="M43.9034 40.5962L45.7536 43.8009C46.0788 44.3641 46.2525 44.9816 46.308 45.6181L59.4996 38.0019L55.7985 31.5913L42.6068 39.2076C43.1303 39.5739 43.5782 40.033 43.9034 40.5962Z" fill="#E6E7E8"/>
<path d="M54.6185 55.7236C54.6958 55.7032 54.7744 55.6888 54.8469 55.6469L67.5255 48.3261L66.6146 46.717C66.6122 46.7192 66.6095 46.7185 66.6072 46.7198L54.1384 53.9186L54.6185 55.7236Z" fill="#CBB292"/>
<path d="M51.8031 21.0786C51.8053 21.0773 51.807 21.0749 51.8092 21.0735L50.8712 19.4801L38.1931 26.799C38.1203 26.8418 38.0686 26.9027 38.0121 26.9594L39.3346 28.2764L51.8031 21.0786Z" fill="#CBB292"/>
</g>
<defs>
<clipPath id="clip0_96:39">
<rect width="54.5906" height="54.5906" fill="white" transform="translate(63.7305 75.8596) rotate(-165)"/>
</clipPath>
</defs>
</svg>
