<svg width="43" height="45" viewBox="0 0 43 45" fill="none" xmlns="http://www.w3.org/2000/svg">
<rect x="0.5" y="0.5" width="42" height="44" fill="#BC2231" stroke="#FFC614"/>
<rect x="6" y="7" width="31" height="31" rx="2" fill="white"/>
<rect x="5" y="6" width="33" height="33" rx="3" stroke="black" stroke-opacity="0.27" stroke-width="2"/>
<path fill-rule="evenodd" clip-rule="evenodd" d="M22.8818 26.1701L30.1735 33.4624L32.1177 31.5181L24.8261 24.2258L22.8818 26.1701Z" fill="#C9412B"/>
<path fill-rule="evenodd" clip-rule="evenodd" d="M19.25 28.5C17.6183 28.5 16.0233 28.0161 14.6665 27.1096C13.3098 26.2031 12.2524 24.9146 11.628 23.4071C11.0036 21.8997 10.8402 20.2409 11.1585 18.6405C11.4769 17.0402 12.2626 15.5702 13.4164 14.4164C14.5702 13.2626 16.0402 12.4769 17.6405 12.1585C19.2409 11.8402 20.8997 12.0036 22.4071 12.628C23.9146 13.2524 25.2031 14.3098 26.1096 15.6665C27.0161 17.0233 27.5 18.6183 27.5 20.25C27.5 22.438 26.6308 24.5365 25.0836 26.0836C23.5365 27.6308 21.438 28.5 19.25 28.5ZM19.25 14.75C18.1622 14.75 17.0988 15.0726 16.1944 15.6769C15.2899 16.2813 14.5849 17.1403 14.1687 18.1452C13.7524 19.1502 13.6435 20.2561 13.8557 21.323C14.0679 22.3899 14.5917 23.3699 15.3609 24.1391C16.1301 24.9083 17.1101 25.4321 18.177 25.6443C19.2439 25.8565 20.3498 25.7476 21.3548 25.3313C22.3598 24.9151 23.2187 24.2101 23.8231 23.3056C24.4274 22.4012 24.75 21.3378 24.75 20.25C24.75 18.7913 24.1705 17.3924 23.1391 16.3609C22.1076 15.3295 20.7087 14.75 19.25 14.75Z" fill="#FFB400"/>
</svg>
