<svg width="54" height="89" viewBox="0 0 54 89" fill="none" xmlns="http://www.w3.org/2000/svg">
<g clip-path="url(#clip0_96:56)">
<path d="M0.35 68.1528L0.35 36.006C0.35 35.0947 1.08873 34.356 2 34.356H44.9966C45.9079 34.356 46.6466 35.0947 46.6466 36.0059V68.1528C46.6466 68.194 46.611 68.3256 46.2881 68.5204C45.9843 68.7036 45.5152 68.8863 44.8838 69.0611C43.6265 69.4094 41.8131 69.7036 39.6159 69.9402C35.2269 70.4129 29.3658 70.65 23.4983 70.65C17.6308 70.65 11.7698 70.4129 7.38071 69.9402C5.18351 69.7036 3.37014 69.4094 2.1128 69.0611C1.48141 68.8863 1.01234 68.7036 0.70856 68.5204C0.385642 68.3256 0.35 68.194 0.35 68.1528Z" fill="url(#paint0_linear_96:56)" stroke="black" stroke-width="0.7"/>
<mask id="path-2-outside-1_96:56" maskUnits="userSpaceOnUse" x="16.696" y="40.1687" width="14" height="25" fill="black">
<rect fill="white" x="16.696" y="40.1687" width="14" height="25"/>
<path fill-rule="evenodd" clip-rule="evenodd" d="M25.8696 52.1387C27.8937 51.2432 29.3038 49.2357 29.3038 46.9028C29.3038 43.7359 26.7053 41.1687 23.4999 41.1687C20.2945 41.1687 17.696 43.7359 17.696 46.9028C17.696 49.2318 19.1015 51.2365 21.1201 52.1343V61.8168C21.1201 62.4404 21.3708 63.0384 21.8171 63.4794C22.2634 63.9203 22.8687 64.168 23.4999 64.168C24.1296 64.1662 24.7328 63.9176 25.1771 63.4768C25.6215 63.036 25.8705 62.4389 25.8696 61.8168V52.1387Z"/>
</mask>
<path fill-rule="evenodd" clip-rule="evenodd" d="M25.8696 52.1387C27.8937 51.2432 29.3038 49.2357 29.3038 46.9028C29.3038 43.7359 26.7053 41.1687 23.4999 41.1687C20.2945 41.1687 17.696 43.7359 17.696 46.9028C17.696 49.2318 19.1015 51.2365 21.1201 52.1343V61.8168C21.1201 62.4404 21.3708 63.0384 21.8171 63.4794C22.2634 63.9203 22.8687 64.168 23.4999 64.168C24.1296 64.1662 24.7328 63.9176 25.1771 63.4768C25.6215 63.036 25.8705 62.4389 25.8696 61.8168V52.1387Z" fill="#BE2332"/>
<path d="M25.8696 52.1387L25.7078 51.7729L25.4696 51.8783V52.1387H25.8696ZM21.1201 52.1343H21.5201V51.8744L21.2827 51.7688L21.1201 52.1343ZM21.8171 63.4794L21.536 63.7639L21.536 63.7639L21.8171 63.4794ZM23.4999 64.168L23.4999 64.568L23.501 64.568L23.4999 64.168ZM25.1771 63.4768L25.4589 63.7608L25.4589 63.7608L25.1771 63.4768ZM25.8696 61.8168L25.4696 61.8168L25.4696 61.8174L25.8696 61.8168ZM26.0315 52.5045C28.1931 51.5481 29.7038 49.4018 29.7038 46.9028H28.9038C28.9038 49.0696 27.5943 50.9383 25.7078 51.7729L26.0315 52.5045ZM29.7038 46.9028C29.7038 43.5105 26.9217 40.7687 23.4999 40.7687V41.5687C26.489 41.5687 28.9038 43.9614 28.9038 46.9028H29.7038ZM23.4999 40.7687C20.0782 40.7687 17.296 43.5105 17.296 46.9028H18.096C18.096 43.9614 20.5109 41.5687 23.4999 41.5687V40.7687ZM17.296 46.9028C17.296 49.3976 18.8018 51.541 20.9576 52.4998L21.2827 51.7688C19.4012 50.932 18.096 49.066 18.096 46.9028H17.296ZM21.5201 61.8168V52.1343H20.7201V61.8168H21.5201ZM22.0982 63.1948C21.7275 62.8285 21.5201 62.3327 21.5201 61.8168H20.7201C20.7201 62.548 21.0141 63.2483 21.536 63.7639L22.0982 63.1948ZM23.4999 63.768C22.9733 63.768 22.4692 63.5613 22.0982 63.1948L21.536 63.7639C22.0577 64.2793 22.7642 64.568 23.4999 64.568V63.768ZM24.8954 63.1929C24.5262 63.5591 24.024 63.7665 23.4988 63.768L23.501 64.568C24.2351 64.5659 24.9394 64.2762 25.4589 63.7608L24.8954 63.1929ZM25.4696 61.8174C25.4704 62.3319 25.2644 62.8267 24.8954 63.1929L25.4589 63.7608C25.9785 63.2452 26.2707 62.5459 26.2696 61.8162L25.4696 61.8174ZM25.4696 52.1387V61.8168H26.2696V52.1387H25.4696Z" fill="black" mask="url(#path-2-outside-1_96:56)"/>
<mask id="path-4-outside-2_96:56" maskUnits="userSpaceOnUse" x="3.11353" y="0.248352" width="41" height="33" fill="black">
<rect fill="white" x="3.11353" y="0.248352" width="41" height="33"/>
<path fill-rule="evenodd" clip-rule="evenodd" d="M38.1234 30.9557C38.1234 31.508 38.5711 31.9557 39.1234 31.9557H41.8794C42.4318 31.9557 42.8795 31.5078 42.8794 30.9554L42.877 22.463C42.877 22.4622 42.8776 22.4616 42.8783 22.4616V22.4616C42.879 22.4616 42.8796 22.461 42.8796 22.4603V20.1468C42.8127 15.1119 40.7412 10.3057 37.1138 6.7686C33.4864 3.23155 28.5948 1.24835 23.4982 1.24835C23.4977 1.24835 23.4971 1.24835 23.4966 1.24835C23.496 1.24835 23.4955 1.24835 23.4949 1.24835C18.3983 1.24835 13.5068 3.23155 9.87937 6.7686C6.25193 10.3057 4.1805 15.1119 4.11353 20.1468V22.4603C4.11353 22.461 4.11412 22.4616 4.11486 22.4616V22.4616C4.11559 22.4616 4.11619 22.4622 4.11619 22.463L4.11381 30.9554C4.11365 31.5078 4.56141 31.9557 5.11381 31.9557H7.86974C8.42203 31.9557 8.86974 31.508 8.86974 30.9557V22.4633C8.86974 22.4624 8.87049 22.4616 8.87142 22.4616V22.4616C8.87234 22.4616 8.87309 22.4609 8.87309 22.4599V20.1468C8.9312 16.3524 10.4976 12.7329 13.234 10.07C15.9701 7.40743 19.6562 5.91479 23.4966 5.91435C27.3369 5.91479 31.0231 7.40743 33.7591 10.07C36.4955 12.7329 38.062 16.3524 38.1201 20.1468V22.4599C38.1201 22.4609 38.1208 22.4616 38.1217 22.4616V22.4616C38.1227 22.4616 38.1234 22.4624 38.1234 22.4633V30.9557Z"/>
</mask>
<path fill-rule="evenodd" clip-rule="evenodd" d="M38.1234 30.9557C38.1234 31.508 38.5711 31.9557 39.1234 31.9557H41.8794C42.4318 31.9557 42.8795 31.5078 42.8794 30.9554L42.877 22.463C42.877 22.4622 42.8776 22.4616 42.8783 22.4616V22.4616C42.879 22.4616 42.8796 22.461 42.8796 22.4603V20.1468C42.8127 15.1119 40.7412 10.3057 37.1138 6.7686C33.4864 3.23155 28.5948 1.24835 23.4982 1.24835C23.4977 1.24835 23.4971 1.24835 23.4966 1.24835C23.496 1.24835 23.4955 1.24835 23.4949 1.24835C18.3983 1.24835 13.5068 3.23155 9.87937 6.7686C6.25193 10.3057 4.1805 15.1119 4.11353 20.1468V22.4603C4.11353 22.461 4.11412 22.4616 4.11486 22.4616V22.4616C4.11559 22.4616 4.11619 22.4622 4.11619 22.463L4.11381 30.9554C4.11365 31.5078 4.56141 31.9557 5.11381 31.9557H7.86974C8.42203 31.9557 8.86974 31.508 8.86974 30.9557V22.4633C8.86974 22.4624 8.87049 22.4616 8.87142 22.4616V22.4616C8.87234 22.4616 8.87309 22.4609 8.87309 22.4599V20.1468C8.9312 16.3524 10.4976 12.7329 13.234 10.07C15.9701 7.40743 19.6562 5.91479 23.4966 5.91435C27.3369 5.91479 31.0231 7.40743 33.7591 10.07C36.4955 12.7329 38.062 16.3524 38.1201 20.1468V22.4599C38.1201 22.4609 38.1208 22.4616 38.1217 22.4616V22.4616C38.1227 22.4616 38.1234 22.4624 38.1234 22.4633V30.9557Z" fill="url(#paint1_linear_96:56)"/>
<path d="M42.8796 20.1468L43.5797 20.1468L43.5796 20.1375L42.8796 20.1468ZM37.1138 6.7686L37.6025 6.26742L37.6025 6.26742L37.1138 6.7686ZM9.87937 6.7686L10.3681 7.26978L10.3681 7.26978L9.87937 6.7686ZM4.11353 20.1468L3.41353 20.1375V20.1468H4.11353ZM8.87309 20.1468L8.17309 20.1361V20.1468H8.87309ZM13.234 10.07L12.7459 9.56833L12.7459 9.56833L13.234 10.07ZM23.4966 5.91435L23.4967 5.21435L23.4965 5.21435L23.4966 5.91435ZM33.7591 10.07L33.2709 10.5717L33.2709 10.5717L33.7591 10.07ZM38.1201 20.1468H38.8202L38.82 20.1361L38.1201 20.1468ZM42.877 22.463L43.577 22.4628L42.877 22.463ZM42.8794 30.9554L43.5794 30.9552L42.8794 30.9554ZM4.11619 22.463L3.41619 22.4628L4.11619 22.463ZM41.8794 31.2557H39.1234V32.6557H41.8794V31.2557ZM42.177 22.4632L42.1794 30.9556L43.5794 30.9552L43.577 22.4628L42.177 22.4632ZM43.5796 22.4603V20.1468H42.1796V22.4603H43.5796ZM43.5796 20.1375C43.5101 14.9158 41.3618 9.93307 37.6025 6.26742L36.6251 7.26978C40.1207 10.6782 42.1152 15.308 42.1797 20.1561L43.5796 20.1375ZM37.6025 6.26742C33.8434 2.60205 28.7762 0.548352 23.4982 0.548352V1.94835C28.4135 1.94835 33.1293 3.86105 36.6251 7.26978L37.6025 6.26742ZM23.4982 0.548352C23.4979 0.548352 23.4976 0.548352 23.4974 0.548352C23.4971 0.548352 23.4968 0.548352 23.4966 0.548352V1.94835C23.4969 1.94835 23.4972 1.94835 23.4975 1.94835C23.4977 1.94835 23.498 1.94835 23.4982 1.94835V0.548352ZM23.4949 1.94835C23.4952 1.94835 23.4954 1.94835 23.4957 1.94835C23.496 1.94835 23.4963 1.94835 23.4966 1.94835V0.548352C23.4963 0.548352 23.4961 0.548352 23.4958 0.548352C23.4955 0.548352 23.4952 0.548352 23.4949 0.548352V1.94835ZM10.3681 7.26978C13.8639 3.86105 18.5797 1.94835 23.4949 1.94835V0.548352C18.217 0.548352 13.1497 2.60205 9.39068 6.26742L10.3681 7.26978ZM4.81346 20.1561C4.87795 15.308 6.8725 10.6782 10.3681 7.26978L9.39068 6.26742C5.63136 9.93307 3.48304 14.9158 3.41359 20.1375L4.81346 20.1561ZM4.81353 22.4603V20.1468H3.41353V22.4603H4.81353ZM3.41619 22.4628L3.41381 30.9552L4.81381 30.9556L4.81619 22.4632L3.41619 22.4628ZM5.11381 32.6557H7.86974V31.2557H5.11381V32.6557ZM9.56974 30.9557V22.4633H8.16974V30.9557H9.56974ZM8.17309 20.1468V22.4599H9.57309V20.1468H8.17309ZM12.7459 9.56833C9.8776 12.3596 8.23413 16.1552 8.17318 20.1361L9.57301 20.1575C9.62826 16.5497 11.1176 13.1063 13.7222 10.5717L12.7459 9.56833ZM23.4965 5.21435C19.475 5.21481 15.6134 6.77776 12.7459 9.56833L13.7222 10.5717C16.3267 8.03709 19.8374 6.61477 23.4967 6.61435L23.4965 5.21435ZM23.4965 6.61435C27.1557 6.61477 30.6664 8.03709 33.2709 10.5717L34.2473 9.56833C31.3797 6.77776 27.5181 5.21481 23.4967 5.21435L23.4965 6.61435ZM33.2709 10.5717C35.8755 13.1063 37.3649 16.5497 37.4202 20.1575L38.82 20.1361C38.759 16.1552 37.1156 12.3596 34.2473 9.56833L33.2709 10.5717ZM37.4201 20.1468V22.4599H38.8201V20.1468H37.4201ZM38.8234 30.9557V22.4633H37.4234V30.9557H38.8234ZM8.87142 23.1616C9.25897 23.1616 9.57309 22.8474 9.57309 22.4599H8.17309C8.17309 22.0743 8.48572 21.7616 8.87142 21.7616V23.1616ZM9.56974 22.4633C9.56974 22.8488 9.25722 23.1616 8.87142 23.1616V21.7616C8.48377 21.7616 8.16974 22.0759 8.16974 22.4633H9.56974ZM7.86974 32.6557C8.80863 32.6557 9.56974 31.8946 9.56974 30.9557H8.16974C8.16974 31.1214 8.03543 31.2557 7.86974 31.2557V32.6557ZM42.8783 23.1616C43.2656 23.1616 43.5796 22.8476 43.5796 22.4603H42.1796C42.1796 22.0744 42.4924 21.7616 42.8783 21.7616V23.1616ZM3.41381 30.9552C3.41354 31.8943 4.17474 32.6557 5.11381 32.6557V31.2557C4.94809 31.2557 4.81376 31.1213 4.81381 30.9556L3.41381 30.9552ZM43.577 22.4628C43.5771 22.8487 43.2642 23.1616 42.8783 23.1616V21.7616C42.4909 21.7616 42.1769 22.0757 42.177 22.4632L43.577 22.4628ZM37.4201 22.4599C37.4201 22.8475 37.7343 23.1616 38.1217 23.1616V21.7616C38.5074 21.7616 38.8201 22.0742 38.8201 22.4599H37.4201ZM38.1217 23.1616C37.7362 23.1616 37.4234 22.8491 37.4234 22.4633H38.8234C38.8234 22.0757 38.5092 21.7616 38.1217 21.7616V23.1616ZM41.8794 32.6557C42.8184 32.6557 43.5796 31.8943 43.5794 30.9552L42.1794 30.9556C42.1794 31.1213 42.0451 31.2557 41.8794 31.2557V32.6557ZM3.41353 22.4603C3.41353 22.8476 3.72752 23.1616 4.11486 23.1616V21.7616C4.50072 21.7616 4.81353 22.0744 4.81353 22.4603H3.41353ZM4.11486 23.1616C3.72892 23.1616 3.41608 22.8487 3.41619 22.4628L4.81619 22.4632C4.8163 22.0757 4.50227 21.7616 4.11486 21.7616V23.1616ZM39.1234 31.2557C38.9577 31.2557 38.8234 31.1214 38.8234 30.9557H37.4234C37.4234 31.8946 38.1845 32.6557 39.1234 32.6557V31.2557Z" fill="black" mask="url(#path-4-outside-2_96:56)"/>
</g>
<g clip-path="url(#clip1_96:56)">
<path d="M35.8045 60.009L21.2644 85.9748C21.0923 86.2813 21.0016 86.6292 21.0015 86.9834C21.0013 87.3375 21.0917 87.6854 21.2635 87.9921C21.4352 88.2988 21.6824 88.5534 21.98 88.7303C22.2776 88.9071 22.6151 89 22.9586 88.9995H52.0389C52.3824 89 52.7199 88.9071 53.0175 88.7303C53.3151 88.5534 53.5622 88.2988 53.734 87.9921C53.9058 87.6854 53.9962 87.3375 53.996 86.9834C53.9959 86.6292 53.9052 86.2813 53.7331 85.9748L39.193 60.009C39.0216 59.7019 38.7748 59.4468 38.4773 59.2694C38.1799 59.0921 37.8423 58.9987 37.4987 58.9987C37.1551 58.9987 36.8176 59.0921 36.5201 59.2694C36.2227 59.4468 35.9758 59.7019 35.8045 60.009Z" fill="#FF9F34"/>
<path d="M52.0383 87.7185H22.958C22.8325 87.7187 22.7091 87.6847 22.6005 87.6199C22.4918 87.5551 22.4017 87.4618 22.3393 87.3495C22.2769 87.2371 22.2444 87.1098 22.2451 86.9804C22.2459 86.8509 22.2798 86.724 22.3435 86.6125L36.8663 60.6501C36.9293 60.5387 37.0194 60.4463 37.1279 60.382C37.2363 60.3178 37.3592 60.2839 37.4843 60.2839C37.6094 60.2839 37.7322 60.3178 37.8407 60.382C37.9491 60.4463 38.0393 60.5387 38.1023 60.6501L52.6424 86.6125C52.7043 86.7244 52.7366 86.851 52.7362 86.9798C52.7359 87.1086 52.7028 87.235 52.6403 87.3465C52.5778 87.458 52.488 87.5507 52.38 87.6154C52.2719 87.68 52.1494 87.7143 52.0244 87.7149L52.0383 87.7185ZM23.1594 86.863H51.8369L37.4982 61.2587L23.1594 86.863Z" fill="black"/>
<path d="M37.54 79.797C37.1378 79.7971 36.7506 79.6397 36.4567 79.3566C36.1628 79.0735 35.9841 78.6859 35.9568 78.2722L35.4673 70.9485C35.4487 70.6549 35.4889 70.3605 35.5852 70.0836C35.6816 69.8067 35.8321 69.5532 36.0274 69.3387C36.2227 69.1243 36.4587 68.9534 36.7207 68.8369C36.9827 68.7203 37.2651 68.6605 37.5504 68.6611V68.6611C37.8357 68.6605 38.1182 68.7203 38.3801 68.8369C38.6421 68.9534 38.8781 69.1243 39.0734 69.3387C39.2687 69.5532 39.4192 69.8067 39.5156 70.0836C39.6119 70.3605 39.6521 70.6549 39.6335 70.9485L39.144 78.2722C39.1165 78.6896 38.9349 79.0803 38.6366 79.364C38.3382 79.6476 37.9458 79.8026 37.54 79.797V79.797Z" fill="black"/>
<path d="M37.5433 84.3216C38.4081 84.3216 39.1092 83.5988 39.1092 82.7072C39.1092 81.8156 38.4081 81.0928 37.5433 81.0928C36.6786 81.0928 35.9775 81.8156 35.9775 82.7072C35.9775 83.5988 36.6786 84.3216 37.5433 84.3216Z" fill="black"/>
</g>
<defs>
<linearGradient id="paint0_linear_96:56" x1="9" y1="60" x2="47" y2="62.5" gradientUnits="userSpaceOnUse">
<stop stop-color="#EDEDED"/>
<stop offset="0.463281" stop-color="white"/>
<stop offset="0.984375" stop-color="#E4E3E3"/>
</linearGradient>
<linearGradient id="paint1_linear_96:56" x1="-3" y1="15" x2="43" y2="29" gradientUnits="userSpaceOnUse">
<stop offset="0.00214667" stop-color="#FF9F34"/>
<stop offset="0.594109" stop-color="#FFDB97"/>
<stop offset="1" stop-color="#FFA742"/>
</linearGradient>
<clipPath id="clip0_96:56">
<rect width="47" height="70.7955" fill="white"/>
</clipPath>
<clipPath id="clip1_96:56">
<rect width="33" height="30.3409" fill="white" transform="translate(21 58.6591)"/>
</clipPath>
</defs>
</svg>
