<svg width="43" height="44" viewBox="0 0 43 44" fill="none" xmlns="http://www.w3.org/2000/svg">
<rect x="0.5" y="0.5" width="42" height="43" fill="#BC2231" stroke="#FFC614"/>
<rect x="6" y="6" width="31" height="31" rx="2" fill="white"/>
<rect x="5" y="5" width="33" height="33" rx="3" stroke="black" stroke-opacity="0.27" stroke-width="2"/>
<path d="M17.1263 22.229H13.0742V31.4036H17.1263V22.229Z" fill="#D14F4E"/>
<path d="M13.0744 22.2289H11.8789V31.4036H13.0744V22.2289Z" fill="#BC2231"/>
<path d="M23.9368 19.1706H19.8848V31.4036H23.9368V19.1706Z" fill="#00AF41"/>
<path d="M19.885 19.1706H18.6895V31.4036H19.885V19.1706Z" fill="#009638"/>
<path d="M30.7474 16.2853H26.6953V31.4036H30.7474V16.2853Z" fill="#0071CE"/>
<path d="M26.6956 16.2853H25.5V31.4036H26.6956V16.2853Z" fill="#005FAD"/>
<path d="M25.2899 11.3448L26.3749 12.4298L24.1897 14.6151L22.5767 13.0021L17.5362 18.0425L16.0664 16.5727L12.001 20.638L12.5961 21.2331L16.0664 17.7628L17.5362 19.2327L22.5767 14.1922L24.1897 15.8052L26.9701 13.0249L28.0551 14.11V11.3448H25.2899Z" fill="#C02433"/>
</svg>
