<?xml version="1.0" encoding="UTF-8" standalone="no"?>
<!-- Created with Inkscape (http://www.inkscape.org/) -->

<svg
   version="1.1"
   id="svg84"
   width="682.66669"
   height="682.66669"
   viewBox="0 0 682.66669 682.66669"
   sodipodi:docname="user.svg"
   inkscape:version="1.1 (c4e8f9e, 2021-05-24)"
   xmlns:inkscape="http://www.inkscape.org/namespaces/inkscape"
   xmlns:sodipodi="http://sodipodi.sourceforge.net/DTD/sodipodi-0.dtd"
   xmlns="http://www.w3.org/2000/svg"
   xmlns:svg="http://www.w3.org/2000/svg">
  <defs
     id="defs88">
    <clipPath
       clipPathUnits="userSpaceOnUse"
       id="clipPath1453">
      <rect
         style="fill:#ff0000;stroke-width:0.133261"
         id="rect1455"
         width="92.60437"
         height="51.415684"
         x="41.236622"
         y="53.096931"
         clip-path="none" />
    </clipPath>
  </defs>
  <sodipodi:namedview
     id="namedview86"
     pagecolor="#ffffff"
     bordercolor="#666666"
     borderopacity="1.0"
     inkscape:pageshadow="2"
     inkscape:pageopacity="0.0"
     inkscape:pagecheckerboard="0"
     showgrid="false"
     inkscape:zoom="0.27052567"
     inkscape:cx="480.5459"
     inkscape:cy="146.01202"
     inkscape:window-width="1600"
     inkscape:window-height="847"
     inkscape:window-x="48"
     inkscape:window-y="25"
     inkscape:window-maximized="1"
     inkscape:current-layer="g90" />
  <g
     inkscape:groupmode="layer"
     inkscape:label="Image"
     id="g90">
    <path
       style="fill:#fdf118;stroke-width:1.33333"
       d="m 310.01699,681.15186 c -63.1528,-5.87364 -126.0237,-30.69564 -176.6667,-69.74964 -5.5,-4.24139 -10.3923,-8.40063 -10.8719,-9.24275 -1.809,-3.17703 5.3405,-35.60279 11.3989,-51.69845 19.8943,-52.85441 59.2594,-96.55411 109.473,-121.52738 32.1229,-15.97604 61.8605,-22.84876 98.6667,-22.803 32.6934,0.0407 56.5838,4.83261 86.0823,17.26661 25.804,10.87668 47.6592,25.74688 69.4139,47.22898 32.5995,32.19094 53.5997,72.79545 61.7201,119.33755 1.0234,5.8655 1.4683,11.35357 0.9888,12.19569 -1.3965,2.45264 -19.7821,16.26029 -33.5385,25.18751 -64.2499,41.69519 -141.2573,60.81847 -216.6666,53.80488 z M 80.860688,561.31543 c -2.6982,-2.98653 -8.9892,-10.96291 -13.9802,-17.72525 -77.34203,-104.79302 -88.30187,-243.46165 -28.37232,-358.97927 16.95939,-32.69019 34.61062,-56.58987 62.089422,-84.06863 27.4787,-27.478755 51.3784,-45.130013 84.0686,-62.089399 98.5838,-51.144413 214.7844,-51.144413 313.3682,0 32.6902,16.959386 56.5898,34.610644 84.0686,62.089399 27.4788,27.47876 45.13,51.37844 62.0894,84.06863 54.7977,105.6257 50.5719,232.15259 -11.1334,333.35076 -8.8613,14.53264 -28.0352,40.76207 -33.5287,45.8664 -3.9573,3.67692 -3.3228,4.63525 -8.2132,-12.40433 -16.5699,-57.73473 -56.5761,-110.5347 -109.9668,-145.13388 -12.2441,-7.93462 -30.5454,-17.35762 -43.3333,-22.31154 -4.4,-1.70452 -8.5026,-3.5381 -9.1168,-4.07463 -0.6142,-0.53652 3.2623,-4.46941 8.6143,-8.73975 20.4196,-16.29241 33.8431,-32.36781 44.9404,-53.81857 32.3788,-62.58736 19.6812,-137.76341 -31.5897,-187.02683 -23.2759,-22.36456 -52.905,-37.187221 -84.6245,-42.335345 -10.5922,-1.71914 -39.1886,-1.71914 -49.7808,0 -31.7195,5.148124 -61.3486,19.970785 -84.6245,42.335345 -51.2709,49.26342 -63.9685,124.43947 -31.5897,187.02683 11.0973,21.45076 24.5208,37.52616 44.9403,53.81857 5.3521,4.27034 9.2286,8.20739 8.6144,8.749 -0.6142,0.5416 -5.3168,2.61735 -10.4501,4.61276 -20.6701,8.03484 -47.5964,23.98114 -66.6814,39.4901 -13.8045,11.21786 -37.4368,36.37427 -47.2599,50.30761 -17.6145,24.985 -30.934702,52.09339 -38.149002,77.63826 -1.9676,6.96667 -4.0085,13.14303 -4.5355,13.72525 -0.5269,0.58223 -3.1656,-1.38494 -5.8638,-4.37149 z M 319.62099,361.84336 c -35.5541,-6.42623 -68.2327,-31.15753 -84.768,-64.15291 -14.4979,-28.92983 -16.043,-65.39794 -4.0845,-96.40734 7.7459,-20.08572 25.3644,-42.17713 43.2485,-54.2282 10.9403,-7.37212 19.3118,-11.44319 32.6666,-15.88601 10.7096,-3.56281 12.6175,-3.7703 34.6667,-3.7703 22.0492,0 23.957,0.20749 34.6667,3.7703 28.1235,9.35598 49.5815,25.64805 65.0986,49.4266 22.4507,34.40352 25.0978,80.44697 6.732,117.09495 -23.7643,47.42041 -76.0561,73.58245 -128.2266,64.15291 z"
       id="path112" />
  </g>
</svg>
