<?xml version="1.0" encoding="UTF-8" standalone="no"?>
<!-- Created with Inkscape (http://www.inkscape.org/) -->

<svg
   width="64"
   height="64"
   viewBox="0 0 16.933333 16.933334"
   version="1.1"
   id="svg5"
   inkscape:version="1.1 (c4e8f9e, 2021-05-24)"
   sodipodi:docname="warning.svg"
   xmlns:inkscape="http://www.inkscape.org/namespaces/inkscape"
   xmlns:sodipodi="http://sodipodi.sourceforge.net/DTD/sodipodi-0.dtd"
   xmlns="http://www.w3.org/2000/svg"
   xmlns:svg="http://www.w3.org/2000/svg">
  <sodipodi:namedview
     id="namedview7"
     pagecolor="#ffffff"
     bordercolor="#666666"
     borderopacity="1.0"
     inkscape:pageshadow="2"
     inkscape:pageopacity="0.0"
     inkscape:pagecheckerboard="0"
     inkscape:document-units="mm"
     showgrid="false"
     units="px"
     width="64px"
     inkscape:zoom="2.3860376"
     inkscape:cx="41.491383"
     inkscape:cy="29.965999"
     inkscape:window-width="1465"
     inkscape:window-height="997"
     inkscape:window-x="0"
     inkscape:window-y="925"
     inkscape:window-maximized="0"
     inkscape:current-layer="g627" />
  <defs
     id="defs2" />
  <g
     inkscape:label="Camada 1"
     inkscape:groupmode="layer"
     id="layer1">
    <g
       id="g627"
       transform="matrix(0.17808369,0,0,0.17808985,4.864057,9.2740469)">
      <path
         style="fill:#f8f119;fill-opacity:1;stroke-width:0.264583"
         d="M 14.864836,42.841474 C -1.1319143,40.882716 -15.22281,31.095835 -22.262063,17.054851 -25.914838,9.768771 -27.31332,3.7987288 -27.31332,-4.50869 c 0,-6.986357 0.91985,-11.890134 3.35006,-17.859374 8.829694,-21.688075 31.7421574,-33.640936 54.698846,-28.535024 17.868372,3.974193 32.071996,18.337406 35.942461,36.346301 2.272951,10.575819 1.001186,21.0062703 -3.75757,30.817888 -6.786263,13.991941 -19.38162,23.433176 -34.958767,26.204411 -2.830915,0.503632 -10.302586,0.718114 -13.096874,0.375962 z m 7.244481,-18.798626 c 1.365565,-0.379164 3.385685,-2.41758 3.809196,-3.843695 0.715052,-2.407848 0.210402,-4.462578 -1.521354,-6.194334 -1.233628,-1.233625 -2.638475,-1.84476 -4.240657,-1.84476 -1.602182,0 -3.007029,0.611135 -4.240657,1.84476 -2.480299,2.480302 -2.480299,5.997934 0,8.484189 1.700236,1.704319 3.775964,2.225085 6.193472,1.55384 z M 22.670044,3.4643537 C 24.058775,2.8318779 25.611755,1.0823075 25.97202,-0.25561367 26.166904,-0.97935753 26.235534,-5.843751 26.184692,-15.329349 l -0.07506,-14.005154 -0.80114,-1.1396 c -0.440627,-0.62678 -1.314085,-1.500111 -1.94102,-1.940737 -1.033661,-0.726485 -1.332876,-0.80114 -3.210965,-0.80114 -1.878089,0 -2.177304,0.07465 -3.210965,0.80114 -0.626935,0.440626 -1.500393,1.313957 -1.94102,1.940737 l -0.80114,1.1396 -0.07507,14.005154 c -0.05084,9.485598 0.01778,14.34999147 0.212672,15.07373533 0.360265,1.33792117 1.913245,3.08749157 3.301976,3.71996737 0.61386,0.279572 1.669487,0.4820021 2.513542,0.4820021 0.844055,0 1.899682,-0.2024301 2.513542,-0.4820021 z"
         id="path631" />
      <path
         style="fill:#000000;stroke-width:0.264583"
         d="m 18.039835,23.983351 c -2.060839,-0.653206 -3.968749,-3.411595 -3.968749,-5.737875 0,-3.23568 2.849737,-6.085417 6.085416,-6.085417 1.602182,0 3.007029,0.611135 4.240657,1.84476 2.494404,2.494407 2.481437,5.994365 -0.03156,8.518149 -1.713434,1.720786 -3.9067,2.227132 -6.325762,1.460383 z M 17.64296,3.4643537 C 16.254229,2.8318779 14.701249,1.0823075 14.340984,-0.25561367 14.1461,-0.97935753 14.07747,-5.843751 14.128312,-15.329349 l 0.07507,-14.005154 0.80114,-1.1396 c 0.440627,-0.62678 1.314085,-1.500111 1.94102,-1.940737 1.033661,-0.726485 1.332876,-0.80114 3.210965,-0.80114 1.878089,0 2.177304,0.07465 3.210965,0.80114 0.626935,0.440626 1.500393,1.313957 1.94102,1.940737 l 0.80114,1.1396 0.07506,14.005154 c 0.05084,9.485598 -0.01778,14.34999147 -0.212672,15.07373533 -0.360265,1.33792117 -1.913245,3.08749157 -3.301976,3.71996737 -0.61386,0.279572 -1.669487,0.4820021 -2.513542,0.4820021 -0.844055,0 -1.899682,-0.2024301 -2.513542,-0.4820021 z"
         id="path629" />
    </g>
  </g>
</svg>
