<?xml version="1.0" encoding="UTF-8" standalone="no"?>
<!-- Created with Inkscape (http://www.inkscape.org/) -->

<svg
   width="400"
   height="120"
   viewBox="0 0 105.83333 31.75"
   version="1.1"
   id="svg5"
   inkscape:version="1.1 (c4e8f9e, 2021-05-24)"
   sodipodi:docname="Logo193.svg"
   xmlns:inkscape="http://www.inkscape.org/namespaces/inkscape"
   xmlns:sodipodi="http://sodipodi.sourceforge.net/DTD/sodipodi-0.dtd"
   xmlns="http://www.w3.org/2000/svg"
   xmlns:svg="http://www.w3.org/2000/svg">
  <sodipodi:namedview
     id="namedview7"
     pagecolor="#ffffff"
     bordercolor="#666666"
     borderopacity="1.0"
     inkscape:pageshadow="2"
     inkscape:pageopacity="0.0"
     inkscape:pagecheckerboard="0"
     inkscape:document-units="mm"
     showgrid="false"
     units="px"
     height="100px"
     inkscape:zoom="1.2863043"
     inkscape:cx="174.14231"
     inkscape:cy="113.89218"
     inkscape:window-width="1465"
     inkscape:window-height="847"
     inkscape:window-x="48"
     inkscape:window-y="25"
     inkscape:window-maximized="0"
     inkscape:current-layer="layer1" />
  <defs
     id="defs2">
    <clipPath
       clipPathUnits="userSpaceOnUse"
       id="clipPath1453">
      <rect
         style="fill:#ff0000;stroke-width:0.133261"
         id="rect1455"
         width="92.60437"
         height="51.415684"
         x="41.236622"
         y="53.096931"
         clip-path="none" />
    </clipPath>
  </defs>
  <g
     inkscape:label="Camada 1"
     inkscape:groupmode="layer"
     id="layer1">
    <path
       style="fill:#fdf118;fill-opacity:1;stroke-width:0.0734484"
       d="m 20.103213,28.869818 c 0.6566,-0.30988 0.972582,-0.89657 0.972582,-1.80581 0,-0.6906 -0.121529,-1.05392 -0.475402,-1.42127 -0.632259,-0.65633 -1.843863,-0.63001 -2.528805,0.0549 -0.790283,0.79029 -0.718862,2.55199 0.126125,3.11118 0.533808,0.35326 1.238405,0.3758 1.9055,0.061 z m -1.311817,-0.55794 c -0.353397,-0.23608 -0.506389,-0.58359 -0.506522,-1.15052 0,-0.8527 0.401366,-1.3552 1.074888,-1.34502 0.659382,0.01 1.033976,0.57034 0.964002,1.4421 -0.04507,0.56149 -0.205295,0.85944 -0.573426,1.06634 -0.353588,0.19873 -0.648079,0.19477 -0.958942,-0.0129 z m 13.691911,0.54244 c 0.343452,-0.21227 0.535846,-0.43979 0.722142,-0.85404 0.214012,-0.47586 0.232559,-1.31356 0.04016,-1.81226 -0.518228,-1.34293 -2.536112,-1.35733 -3.227978,-0.023 -0.208729,0.40255 -0.258133,1.2742 -0.102339,1.80572 0.187259,0.63888 0.606435,1.00625 1.240534,1.08724 0.496046,0.0633 1.027433,-0.0181 1.327519,-0.20362 z m -1.342596,-0.50041 c -0.356352,-0.1853 -0.530893,-0.5263 -0.568933,-1.11151 -0.02663,-0.40936 -0.0035,-0.54343 0.138765,-0.81605 0.230842,-0.4414 0.487779,-0.61637 0.90509,-0.61637 0.646843,0 0.991249,0.4554 0.991431,1.31097 0,0.56855 -0.13893,0.92317 -0.454379,1.15869 -0.268839,0.20072 -0.706978,0.23288 -1.011974,0.0743 z m 4.404308,0.53981 c 0.432441,-0.20685 0.661938,-0.55367 0.658537,-0.9952 -0.0043,-0.51827 -0.126976,-0.66805 -0.850471,-1.03578 -0.508277,-0.25834 -0.666241,-0.3763 -0.7234,-0.54015 -0.06463,-0.18537 -0.04841,-0.23088 0.140439,-0.39332 0.189567,-0.16307 0.265482,-0.1804 0.675801,-0.15427 0.491126,0.0313 0.539889,2.9e-4 0.539889,-0.34265 0,-0.21402 -0.119351,-0.25892 -0.688206,-0.25892 -0.831846,0 -1.442124,0.47878 -1.441525,1.13094 7.28e-4,0.50161 0.210533,0.74729 0.916635,1.07196 0.690999,0.31774 0.820708,0.50155 0.595947,0.84458 -0.15098,0.23041 -0.386194,0.2889 -0.932311,0.23182 -0.475373,-0.0497 -0.438869,-0.0849 -0.464261,0.4482 -0.01284,0.26895 1.005364,0.26429 1.572926,-0.007 z m 2.898467,-0.002 c 0.396855,-0.21308 0.627159,-0.57245 0.627159,-0.97865 0,-0.5327 -0.151648,-0.72559 -0.829608,-1.05527 -0.831169,-0.40417 -0.944283,-0.57837 -0.599451,-0.9232 0.169466,-0.16947 0.232533,-0.18449 0.6794,-0.16192 l 0.492584,0.0249 0.02386,-0.24937 c 0.03071,-0.32122 -0.05847,-0.37243 -0.65092,-0.37382 -0.902912,-0.002 -1.511463,0.49756 -1.447173,1.18824 0.04632,0.49742 0.197166,0.6723 0.841024,0.97498 0.31473,0.14795 0.61354,0.32274 0.664037,0.38844 0.149766,0.19483 0.105965,0.43668 -0.110172,0.6084 -0.178688,0.14195 -0.263408,0.15593 -0.734487,0.12117 l -0.532498,-0.0393 -0.01102,0.21468 c -0.0061,0.11808 -0.01431,0.256 -0.01839,0.3065 -0.01865,0.2329 1.148588,0.19963 1.605674,-0.0458 z m 3.694077,0.009 c 0.816014,-0.37805 1.207153,-1.51631 0.901732,-2.62421 -0.308154,-1.11786 -1.882303,-1.48133 -2.824313,-0.65213 -0.487743,0.42932 -0.653349,0.88955 -0.617235,1.71532 0.02464,0.56258 0.06081,0.72269 0.22784,1.0077 0.236394,0.40338 0.586882,0.63796 1.063105,0.71156 0.459107,0.071 0.865262,0.0195 1.248871,-0.15824 z m -1.230714,-0.54671 c -0.403952,-0.20801 -0.602471,-0.66648 -0.572525,-1.32219 0.02577,-0.56339 0.134576,-0.78929 0.518427,-1.07587 0.240983,-0.17992 0.788896,-0.1862 1.054638,-0.0121 0.423453,0.27745 0.60326,1.24006 0.349906,1.87325 -0.22038,0.55079 -0.842872,0.79827 -1.350446,0.53689 z m 10.336299,0.53896 c 0.97088,-0.50206 1.29244,-2.16996 0.60458,-3.13596 -0.55707,-0.78234 -2.110759,-0.75769 -2.771551,0.044 -0.744004,0.90261 -0.537868,2.62222 0.370665,3.09204 0.472528,0.24435 1.323746,0.24434 1.796306,-3e-5 z m -1.297111,-0.53896 c -0.369903,-0.19429 -0.551817,-0.60153 -0.551817,-1.23531 0,-0.82852 0.375749,-1.30862 1.024188,-1.30862 0.64885,0 1.0242,0.48003 1.0242,1.30983 0,0.56971 -0.1368,0.89895 -0.4797,1.15451 -0.27588,0.20562 -0.711954,0.23976 -1.016871,0.0796 z m 5.350561,0.67979 c 0.30841,-0.0519 0.70353,-0.34378 0.85087,-0.62869 0.14248,-0.27554 0.14064,-0.75601 -0.004,-1.03567 -0.084,-0.16238 -0.27997,-0.30093 -0.74269,-0.52504 -0.71315,-0.34539 -0.85483,-0.52228 -0.65842,-0.82204 0.15089,-0.23029 0.38485,-0.29233 0.90139,-0.23902 l 0.40142,0.0415 -0.0224,-0.30726 -0.0224,-0.30726 -0.51214,-0.0221 c -0.86179,-0.0372 -1.43621,0.30085 -1.55099,0.91272 -0.112,0.597 0.20637,1.02744 0.95156,1.2865 0.61574,0.21406 0.81244,0.64524 0.43217,0.94733 -0.17868,0.14195 -0.2634,0.15592 -0.73448,0.12116 l -0.5325,-0.0393 v 0.32082 0.32083 l 0.34888,0.0255 c 0.36309,0.0266 0.47526,0.0203 0.89361,-0.05 z m 3.69475,-0.003 c 0.34746,-0.0558 0.70124,-0.35238 0.87402,-0.73275 0.11524,-0.2537 0.13507,-0.49696 0.13644,-1.67399 l 0.002,-1.37716 h -0.32363 -0.32364 l -0.0261,1.37716 c -0.0182,0.96151 -0.0554,1.42891 -0.12296,1.54864 -0.23011,0.40747 -1.00518,0.47177 -1.344,0.11148 -0.16793,-0.17858 -0.17396,-0.22814 -0.19598,-1.61077 l -0.0227,-1.42651 h -0.32615 -0.32615 v 1.48733 c 0,1.62526 0.0443,1.8353 0.44882,2.13158 0.18929,0.13865 0.84432,0.27216 1.1302,0.23036 0.0808,-0.0118 0.26987,-0.0412 0.42017,-0.0654 z M 7.4631155,27.780418 c 0.08739,-0.68674 0.163514,-1.29819 0.169168,-1.35879 0.0056,-0.0606 0.08949,0.15424 0.186296,0.47741 0.09681,0.32318 0.286131,0.93464 0.420714,1.3588 l 0.244695,0.77121 0.367626,0.0217 0.367627,0.0217 0.174451,-0.57252 c 0.09595,-0.31489 0.283208,-0.93609 0.416134,-1.38045 0.132925,-0.44436 0.2461475,-0.79141 0.2516065,-0.77121 0.0055,0.0202 0.09793,0.63166 0.2055,1.3588 l 0.195572,1.32207 0.387988,0.0223 c 0.371833,0.0214 0.386369,0.0153 0.349133,-0.14689 -0.04476,-0.19491 -0.553499,-3.49856 -0.553499,-3.59435 0,-0.035 -0.196357,-0.0637 -0.43635,-0.0637 H 9.7734285 l -0.401852,1.23026 c -0.22102,0.67664 -0.416169,1.29637 -0.433665,1.37716 -0.03797,0.17534 0.0082,0.29559 -0.508072,-1.32207 l -0.398524,-1.24862 h -0.433701 -0.433703 l -0.274263,1.76276 c -0.150846,0.96952 -0.276271,1.82241 -0.278723,1.89531 -0.0038,0.11281 0.04753,0.12923 0.344421,0.11018 l 0.34888,-0.0224 z m 4.8452595,0.88138 0.127338,-0.40396 h 0.754042 0.754042 l 0.127338,0.40396 0.127339,0.40397 h 0.398412 c 0.28796,0 0.388952,-0.0254 0.364292,-0.0918 -0.01876,-0.0505 -0.325035,-0.90984 -0.680598,-1.90966 l -0.64648,-1.81785 h -0.420301 -0.420301 l -0.296702,0.86303 c -0.163185,0.47465 -0.462743,1.334 -0.665686,1.90965 l -0.368983,1.04664 h 0.359454 0.359455 z m 0.605454,-1.7864 0.266266,-0.79485 0.274755,0.77649 c 0.151115,0.42707 0.275059,0.78475 0.275431,0.79485 3.67e-4,0.0101 -0.243086,0.0184 -0.541021,0.0184 h -0.541695 z m 3.46127,0.5745 v -1.61585 h 0.514138 0.514139 v -0.2938 -0.2938 h -1.358794 -1.358796 v 0.2938 0.2938 h 0.514139 0.514139 v 1.61585 1.61587 h 0.330518 0.330517 z m 9.250877,1.53634 0.370856,-0.0796 v -0.91201 -0.91202 h -0.330517 -0.330518 v 0.62173 c 0,0.73943 -0.07461,0.82021 -0.690052,0.74731 -0.613976,-0.0727 -0.996936,-0.45948 -1.055189,-1.06565 -0.06849,-0.71279 0.14808,-1.18349 0.670628,-1.45756 0.265523,-0.13926 1.063205,-0.15361 1.396959,-0.0252 0.116696,0.0449 0.219503,0.0725 0.228482,0.0613 0.009,-0.0112 0.0373,-0.15742 0.06289,-0.32485 0.05647,-0.36888 0.02013,-0.39008 -0.764285,-0.44612 -1.438336,-0.10279 -2.386584,0.69328 -2.381354,1.99918 0.0036,0.88994 0.282064,1.38816 0.949768,1.69908 0.41867,0.19496 1.215795,0.23511 1.872319,0.0943 z m 1.929225,-0.7414 0.02073,-0.82093 0.542534,0.82093 0.542535,0.82093 h 0.439103 0.439103 l -0.131921,-0.20198 c -0.07252,-0.11109 -0.343201,-0.49427 -0.601421,-0.85151 -0.25822,-0.35724 -0.458812,-0.6547 -0.445756,-0.66104 0.674074,-0.32664 0.941862,-0.62602 0.941862,-1.053 0,-0.34577 -0.172632,-0.72334 -0.398356,-0.87124 -0.257457,-0.1687 -1.158868,-0.28878 -1.676557,-0.22335 l -0.422326,0.0533 v 1.90437 1.90438 h 0.364828 0.364836 z m -0.01596,-1.89666 v -0.58758 l 0.275432,8.6e-4 c 0.565324,0.003 0.868177,0.3511 0.686193,0.79045 -0.104317,0.25183 -0.347573,0.38365 -0.70802,0.38365 h -0.253605 z m 19.291569,2.60814 c 0.814349,-0.24183 1.258162,-0.80499 1.328906,-1.68622 0.06688,-0.83352 -0.240479,-1.55616 -0.780785,-1.83555 -0.349359,-0.18067 -1.098585,-0.27571 -1.747371,-0.22167 l -0.611614,0.0509 v 1.90097 1.90098 h 0.721153 c 0.425058,0 0.87248,-0.0449 1.089711,-0.10946 z m -1.059678,-1.81857 0.02004,-1.34043 0.408229,0.008 c 0.224517,0.004 0.504226,0.0538 0.621564,0.11018 0.470541,0.22623 0.710604,0.93609 0.54708,1.61772 -0.146529,0.61082 -0.618779,0.9439 -1.33982,0.94496 l -0.277088,4.4e-4 0.02004,-1.34043 z m 17.096766,1.5975 v -0.33051 h -0.62431 -0.62431 v -1.57914 -1.57915 h -0.33052 -0.33051 v 1.90967 1.90965 h 0.95483 0.95482 z m 16.45244,0.048 c 4.65006,-0.83738 8.1208,-3.50442 10.3689,-7.96785 2.14005,-4.24889 2.95593,-10.41143 1.82492,-13.7841099 -0.5602,-1.67054 -1.72448,-3.01036 -3.19558,-3.67739 -1.42221,-0.64486 -3.40167,-0.80656 -5.26954,-0.43048 -3.30538,0.66553 -5.97655,3.06643 -7.24791,6.51457 -0.52107,1.4131899 -0.79586,3.4373399 -0.66659,4.9102999 0.26409,3.00959 1.78374,4.91673 4.32672,5.42999 0.85294,0.17215 2.32592,0.11781 3.05408,-0.11269 0.70042,-0.22171 1.5352,-0.66474 2.08051,-1.10415 0.24941,-0.20097 0.45346,-0.33283 0.45346,-0.29302 0,0.0398 -0.22691,0.54372 -0.50425,1.11979 -0.92203,1.91521 -1.83075,2.95818 -3.28685,3.77248 -1.45838,0.81558 -3.52286,1.10175 -5.50435,0.763 -0.4749,-0.0812 -0.86877,-0.13902 -0.87525,-0.12854 -0.0411,0.0665 -0.85387,4.99402 -0.82799,5.01991 0.21834,0.21834 4.00762,0.19546 5.26972,-0.0318 z m 2.62007,-13.92476 c -1.12107,-0.30134 -1.64437,-1.38826 -1.45234,-3.01657 0.0977,-0.82855 0.3051,-1.5281 0.64725,-2.1832199 1.27766,-2.44652 4.34047,-2.83474 5.16836,-0.65511 0.3708,0.97625 0.21534,2.5129499 -0.37835,3.7398399 -0.78918,1.6309 -2.46903,2.52251 -3.98492,2.11506 z m 13.19618,14.0237 c 4.81153,-0.63073 8.322952,-3.7122 9.122942,-8.00588 0.0924,-0.49586 0.11509,-0.92716 0.0908,-1.72604 -0.0289,-0.95049 -0.0565,-1.13419 -0.25684,-1.7085 -0.4814,-1.37986 -1.34865,-2.35758 -2.38979,-2.69419 -0.15149,-0.049 -0.27531,-0.11128 -0.27517,-0.13844 0,-0.0272 0.22325,-0.16464 0.49578,-0.30551 1.92397,-0.99443 3.35274,-2.8543 3.78057,-4.9212599 0.20974,-1.0133 0.15802,-2.37428 -0.12141,-3.19503 -0.91687,-2.69303 -3.63836,-3.78612 -8.121422,-3.26198 -0.83151,0.0972 -1.88298,0.31562 -2.62577,0.5454 l -0.60595,0.18746 v 2.38429 c 0,1.31137 0.0174,2.3843 0.0388,2.3843 0.0213,0 0.23465,-0.0989 0.47399,-0.21968 1.03005,-0.51997 2.80743,-0.83297 3.78873,-0.66721 1.01061,0.17071 1.558062,0.66833 1.724242,1.56734 0.24819,1.3424899 -0.597412,2.7121699 -2.133392,3.4556499 -1.11222,0.53837 -2.56571,0.85705 -3.91306,0.85795 -0.44796,3e-4 -0.65569,0.0285 -0.68007,0.0923 -0.0399,0.10432 -0.75677,4.41718 -0.73808,4.44029 0.007,0.009 0.24226,-0.0208 0.5235,-0.0645 0.84937,-0.13217 2.85457,-0.11075 3.4045,0.0363 1.34636,0.36017 1.95057,0.98145 2.04055,2.09816 0.0466,0.5786 -0.1034,1.29518 -0.39829,1.90259 -0.24789,0.5106 -0.94558,1.23247 -1.48729,1.53883 -1.4036,0.79379 -3.53146,0.95425 -5.20601,0.39257 -0.34823,-0.1168 -0.64371,-0.20228 -0.6566,-0.18997 -0.0129,0.0123 -0.28419,1.05281 -0.60283,2.31221 -0.31866,1.2594 -0.59867,2.35062 -0.62227,2.42494 -0.0374,0.11789 0.0442,0.15509 0.63957,0.29162 0.37534,0.0861 0.89728,0.18373 1.15985,0.21702 0.80496,0.10206 2.65882,0.0859 3.55038,-0.031 z M 9.8540175,20.233038 c 0.4328645,-1.38326 0.8625375,-2.79596 0.9548285,-3.13934 l 0.1678,-0.6243 0.05473,0.99155 c 0.04696,0.85067 0.416715,4.33121 0.536449,5.04957 l 0.03978,0.23871 h 1.043368 1.043368 l 1.138392,-2.35774 c 0.626116,-1.29676 1.272713,-2.68429 1.436881,-3.0834 0.16417,-0.39912 0.324903,-0.7511 0.357185,-0.78218 0.03228,-0.0311 0.03777,0.10875 0.01219,0.31073 -0.03278,0.25877 -0.337343,5.574 -0.337343,5.88715 0,0.0286 2.349672,0.0357 2.35156,0.007 0.0072,-0.10925 0.29098,-9.39927 0.291656,-9.54829 l 9.54e-4,-0.20198 h -1.202908 c -0.874213,0 -1.222955,0.0251 -1.276292,0.0918 -0.139964,0.17509 -2.647393,5.23587 -2.856245,5.76479 -0.11545,0.29238 -0.234695,0.532 -0.264993,0.53251 -0.0303,5.1e-4 -0.05521,-0.28831 -0.05535,-0.64177 -1.47e-4,-0.35347 -0.132351,-1.76432 -0.293793,-3.13522 -0.161443,-1.37089 -0.293533,-2.52023 -0.293533,-2.55407 0,-0.0338 -0.56744,-0.0525 -1.260978,-0.0415 l -1.260978,0.0201 -1.6756475,4.81087 c -0.921605,2.64598 -1.676236,4.83566 -1.676956,4.86596 -7.34e-4,0.0303 0.50273,0.0548 1.118779,0.0545 l 1.120088,-5.9e-4 0.787027,-2.51502 z m 13.0946975,2.35094 c 0.06989,-0.29233 1.7995,-9.45433 1.7995,-9.53219 0,-0.0487 -0.380007,-0.068 -1.080719,-0.0548 l -1.080719,0.0203 -0.900559,4.73742 c -0.495313,2.60558 -0.901387,4.79526 -0.902386,4.86596 -0.0016,0.11658 0.09709,0.12853 1.06177,0.12853 1.042328,0 1.064398,-0.003 1.103113,-0.16525 z m 8.101923,-0.77081 c 0.09118,-0.51506 0.164704,-0.96126 0.163403,-0.99155 -0.0017,-0.0303 -0.64752,-0.0551 -1.436017,-0.0551 h -1.43364 l 0.03739,-0.16526 c 0.05526,-0.24431 1.43436,-7.53506 1.43436,-7.58313 0,-0.0225 -0.486026,-0.0319 -1.080055,-0.0207 l -1.080047,0.0203 -0.900717,4.73742 c -0.495395,2.60558 -0.901775,4.79527 -0.903059,4.86596 -0.0017,0.11996 0.165623,0.12854 2.515118,0.12854 h 2.517469 z m 4.00479,0.77121 c 0.05058,-0.2071 1.811766,-9.49975 1.811766,-9.55956 0,-0.0241 -0.480292,-0.0438 -1.067312,-0.0438 -0.787005,0 -1.076108,0.0241 -1.100823,0.0918 -0.01839,0.0505 -0.430003,2.19061 -0.914597,4.75579 -0.484612,2.56518 -0.89507,4.72181 -0.912134,4.79251 -0.02854,0.11802 0.05786,0.12853 1.055844,0.12853 1.06621,0 1.087646,-0.003 1.127256,-0.16526 z m 6.365562,0.12232 c 0,-0.0236 0.330518,-1.76589 0.734487,-3.87174 0.40396,-2.10584 0.734478,-3.85479 0.734478,-3.88656 0,-0.0317 0.522165,-0.0578 1.160386,-0.0578 h 1.160366 l 0.163047,-0.89974 c 0.08967,-0.49487 0.16244,-0.92454 0.161693,-0.95483 -7.37e-4,-0.0303 -1.5169,-0.0551 -3.369239,-0.0551 h -3.36788 l -0.157642,0.83728 c -0.08666,0.46049 -0.157634,0.89017 -0.157634,0.95482 0,0.10256 0.140631,0.11756 1.101726,0.11756 0.970134,0 1.101725,0.0143 1.101725,0.11991 0,0.0983 -1.167959,6.35003 -1.387514,7.42691 l -0.06367,0.31216 h 1.092816 c 0.601057,0 1.092825,-0.0194 1.092825,-0.0429 z m 5.195094,-0.89353 0.473239,-0.89975 H 48.7355 c 0.905402,0 1.648388,0.009 1.651088,0.0184 0.003,0.0101 0.0606,0.41498 0.12854,0.89974 l 0.12363,0.88138 1.15681,0.0202 c 0.71903,0.0126 1.15681,-0.007 1.15681,-0.0516 0,-0.0783 -1.3704,-9.07267 -1.44162,-9.4618 l -0.0437,-0.23871 h -1.232722 -1.232727 l -2.523333,4.82476 c -1.387828,2.65362 -2.534635,4.85244 -2.548455,4.88627 -0.01379,0.0338 0.478444,0.0524 1.093943,0.0412 l 1.119075,-0.0203 z m 1.341806,-2.64799 c 0,-0.0324 0.243222,-0.51994 0.540479,-1.08337 0.297258,-0.56344 0.685621,-1.35494 0.863016,-1.75891 l 0.322545,-0.73448 0.05942,0.47741 c 0.0327,0.26258 0.140127,1.05582 0.238727,1.76276 0.09859,0.70694 0.179252,1.31013 0.179243,1.34044 -9e-6,0.0303 -0.495794,0.0551 -1.101743,0.0551 -0.605949,0 -1.101725,-0.0265 -1.101725,-0.0589 z m 8.961988,3.56609 c 7.3e-4,-0.0101 0.16068,-0.85314 0.35549,-1.87342 0.32229,-1.68796 0.40274,-2.01305 0.47543,-1.92142 0.0134,0.0168 0.36754,0.8817 0.78707,1.92191 l 0.76278,1.89129 h 1.26688 1.26688 l -0.13605,-0.31216 c -0.13928,-0.31956 -1.15637,-2.54705 -1.50872,-3.30419 -0.1915,-0.41149 -0.19555,-0.5702 -0.0146,-0.5702 0.21475,0 1.14634,-0.52215 1.49811,-0.83968 0.9469,-0.85472 1.30886,-2.47809 0.78931,-3.54 -0.49737,-1.0166 -1.65534,-1.33259 -4.47378,-1.22082 l -1.39038,0.0552 -0.90153,4.73742 c -0.49583,2.60559 -0.90303,4.79527 -0.90488,4.86596 -0.003,0.11666 0.0951,0.12854 1.06165,0.12854 0.58574,0 1.06558,-0.009 1.06629,-0.0184 z m 1.18905,-5.39262 c -0.11565,-0.0242 -0.15711,-0.0738 -0.13228,-0.15826 0.0199,-0.0677 0.12479,-0.60226 0.2331,-1.18801 0.10832,-0.58575 0.22973,-1.10632 0.26982,-1.15681 0.0907,-0.11423 0.7574,-0.12047 1.1915,-0.0112 0.40065,0.10089 0.62709,0.33631 0.67629,0.70311 0.0854,0.63703 -0.34783,1.3734 -0.96824,1.64556 -0.31089,0.13638 -0.988,0.22464 -1.27019,0.16558 z m 13.79313,5.31003 c 0,-0.0151 0.77671,-4.43579 1.72601,-9.82371 0.94932,-5.3879199 1.72603,-9.8375399 1.72604,-9.8880399 2e-5,-0.0711 -0.44241,-0.0918 -1.96736,-0.0918 h -1.96739 l -2.75167,1.02337 -2.75167,1.02336 -0.0194,2.39131 -0.0193,2.39131 0.34987,-0.14037 c 0.19245,-0.0772 0.94279,-0.39017 1.66745,-0.69548 0.72467,-0.3053 1.33362,-0.53904 1.35324,-0.51942 0.0256,0.0256 -2.03943,11.8710299 -2.46768,14.1549999 l -0.0378,0.20198 h 2.57988 c 1.41893,0 2.57987,-0.0124 2.57987,-0.0275 z m -51.307519,-11.9834 c 1.226779,-0.31954 2.349151,-1.2640599 2.933792,-2.4688799 0.444921,-0.91688 0.583327,-1.51745 0.590025,-2.56026 0.0041,-0.63444 -0.0274,-0.93878 -0.126499,-1.22287 -0.416035,-1.19274 -1.288351,-1.74227 -2.769166,-1.74451 -0.832199,-8.7e-4 -1.487997,0.17701 -2.193058,0.59617 -0.58852,0.34988 -1.379618,1.17743 -1.737737,1.81781 -0.741855,1.32656 -0.950298,3.1563 -0.483594,4.24508 0.28104,0.65564 0.944152,1.1969799 1.678137,1.3699699 0.45751,0.10782 1.639272,0.0896 2.1081,-0.0325 z M 19.123808,9.0180781 c -0.189592,-0.0968 -0.364685,-0.26692 -0.477414,-0.46373 -0.156313,-0.2729 -0.177774,-0.40034 -0.176055,-1.04528 0.0037,-1.40496 0.657443,-2.63258 1.631178,-3.0633 0.421072,-0.18627 1.136826,-0.20652 1.451692,-0.041 0.527888,0.27737 0.717113,0.66492 0.713433,1.46119 -0.0061,1.31794 -0.605456,2.50584 -1.540997,3.05411 -0.454199,0.26617 -1.185156,0.31094 -1.601837,0.0981 z m 41.64023,1.6430199 c 1.87508,-0.48376 3.25345,-2.2352199 3.50015,-4.4475799 0.14363,-1.28808 -0.11703,-2.24273 -0.77893,-2.85285 -0.41954,-0.38672 -0.80882,-0.5604 -1.49446,-0.66679 -2.23485,-0.34675 -4.37943,1.22199 -5.08227,3.71762 -0.23824,0.84595 -0.23591,2.16361 0.005,2.78689 0.24475,0.63338 0.83537,1.1995999 1.47409,1.4131799 0.59739,0.19976 1.70469,0.22284 2.37647,0.0495 z m -1.46538,-1.6392699 c -0.46224,-0.20993 -0.6403,-0.55913 -0.67705,-1.32778 -0.0886,-1.85318 1.01803,-3.39834 2.43386,-3.39834 0.94273,0 1.37175,0.49406 1.37175,1.57971 0,1.03531 -0.36341,1.96929 -1.02357,2.63066 -0.62746,0.62859 -1.42582,0.8242 -2.10499,0.51575 z M 13.280649,10.527508 c 0.998847,-0.27491 1.706216,-0.8071599 2.078939,-1.5642599 0.443819,-0.90153 0.289395,-1.90781 -0.353772,-2.30531 -0.244844,-0.15132 -0.258815,-0.17599 -0.139367,-0.24611 0.07302,-0.0429 0.285336,-0.19617 0.471823,-0.34069 0.967519,-0.74979 1.098548,-2.29423 0.244674,-2.88394 -0.497641,-0.34368 -0.984951,-0.41555 -2.817913,-0.41555 -0.918251,0 -1.685711,0.0261 -1.705465,0.0581 -0.01975,0.0319 -0.354326,1.74239 -0.743492,3.80095 -0.3891645,2.05855 -0.7238355,3.7994499 -0.7437135,3.8686599 -0.03199,0.11138 0.04656,0.12917 0.6840705,0.15498 1.19287,0.0483 2.602649,-0.0108 3.024216,-0.12686 z M 11.631161,8.9229581 c 0.02694,-0.17169 0.102006,-0.60431 0.166815,-0.96139 l 0.117835,-0.64922 0.7182,0.0249 c 0.640508,0.0222 0.738686,0.0442 0.907574,0.20298 0.342005,0.32157 0.224998,0.95229 -0.250961,1.35278 -0.286711,0.24125 -0.649302,0.34116 -1.240004,0.34168 l -0.46844,4.4e-4 0.04898,-0.31216 z m 0.609628,-2.96791 c -0.023,-0.0372 0.03096,-0.44643 0.1199,-0.9094 l 0.161708,-0.84175 h 0.635856 c 0.531222,0 0.66994,0.0254 0.842987,0.15424 0.457678,0.34081 0.235416,1.08119 -0.422705,1.40809 -0.354809,0.17624 -1.26603,0.30486 -1.337746,0.18882 z m 25.381963,4.6419399 c 1.098473,-0.19582 2.053582,-0.8241199 2.458791,-1.6174899 0.251315,-0.49203 0.31538,-1.36172 0.127636,-1.73272 -0.168009,-0.332 -0.399666,-0.58208 -0.616819,-0.66588 -0.172381,-0.0665 -0.169336,-0.0722 0.146894,-0.27367 0.405331,-0.25821 0.834049,-0.73073 0.99059,-1.09177 0.07044,-0.1624 0.122604,-0.48987 0.1261,-0.79122 0.0088,-0.75993 -0.222644,-1.11565 -0.941568,-1.44701 -0.346809,-0.15986 -0.466698,-0.17011 -2.251285,-0.19264 l -1.884957,-0.0238 -0.07981,0.39103 c -0.138063,0.67652 -1.401647,7.3660499 -1.401742,7.4209599 0,0.0513 0.66932,0.0883 2.056462,0.11349 0.383765,0.007 0.955135,-0.0332 1.269699,-0.0893 z M 36.340925,9.1985081 c -0.02013,-0.0201 0.03912,-0.44154 0.131652,-0.93647 0.09255,-0.49493 0.169613,-0.90813 0.171262,-0.91822 0.0017,-0.0101 0.292208,-0.0182 0.64568,-0.018 0.963689,4.4e-4 1.304105,0.28393 1.155164,0.96203 -0.074,0.33706 -0.534753,0.76089 -0.937334,0.86226 -0.339254,0.0854 -1.097944,0.11696 -1.166424,0.0485 z m 0.599712,-3.29214 c 0,-0.17691 0.279213,-1.58273 0.330986,-1.66651 0.02472,-0.04 0.275396,-0.0727 0.557091,-0.0727 0.844321,0 1.232952,0.25968 1.138265,0.76058 -0.118171,0.62516 -0.602098,0.96436 -1.49414,1.04725 -0.460512,0.0428 -0.532202,0.0336 -0.532202,-0.0686 z m -10.66866,2.5759 c 0.368011,-1.1816 0.714751,-2.31362 0.77054,-2.51561 l 0.101428,-0.36724 0.04849,0.80793 c 0.02663,0.44437 0.138505,1.57639 0.248582,2.51561 l 0.200124,1.7076799 h 0.853447 0.853455 l 0.935356,-1.9409599 c 0.514446,-1.06753 1.050682,-2.21607 1.191634,-2.55233 l 0.256277,-0.61138 -0.0393,0.58759 c -0.0216,0.32317 -0.07209,1.24862 -0.112272,2.05655 -0.04017,0.80794 -0.09006,1.69207 -0.110892,1.9647499 l -0.03782,0.49578 h 0.955343 c 0.941264,0 0.955361,-0.003 0.956992,-0.16526 8.67e-4,-0.0909 0.04971,-1.6691199 0.108524,-3.5071699 0.05882,-1.83804 0.107605,-3.53195 0.108516,-3.76422 l 0.0017,-0.42234 h -0.978896 -0.978888 l -1.067329,2.11165 c -0.587038,1.1614 -1.143244,2.30995 -1.236023,2.55233 -0.09277,0.24238 -0.196576,0.47209 -0.230669,0.51047 -0.03435,0.0386 -0.06454,-0.22365 -0.06775,-0.58759 -0.0035,-0.36156 -0.110588,-1.53324 -0.23871,-2.60375 l -0.232932,-1.94638 -1.000202,-0.0204 -1.000211,-0.0204 -0.155786,0.42434 c -0.1989,0.54178 -2.581218,7.3866999 -2.581218,7.4163999 0,0.0122 0.407131,0.0223 0.904744,0.0223 h 0.904746 z m 19.186966,1.7260299 c 0.0452,-0.2322799 0.109626,-0.5627999 0.143198,-0.7344799 l 0.06107,-0.31216 h -1.242016 c -0.926994,0 -1.250424,-0.0233 -1.275139,-0.0918 -0.01822,-0.0505 0.04069,-0.45538 0.130845,-0.89975 l 0.163949,-0.80793 1.222948,-0.0201 1.22295,-0.0201 0.117634,-0.64094 c 0.06471,-0.35251 0.117572,-0.66572 0.117476,-0.69601 0,-0.0303 -0.527015,-0.0551 -1.170986,-0.0551 -0.643953,0 -1.183538,-0.0248 -1.199058,-0.0551 -0.01553,-0.0303 0.03522,-0.39312 0.112784,-0.80627 l 0.140995,-0.75117 1.291507,-0.02 1.291508,-0.02 0.129336,-0.66104 c 0.07113,-0.36357 0.131348,-0.70235 0.133795,-0.75284 0.0035,-0.0715 -0.468589,-0.0918 -2.127849,-0.0918 -1.638724,0 -2.140182,0.0213 -2.166346,0.0918 -0.01874,0.0505 -0.349577,1.76092 -0.735233,3.80095 -0.385656,2.04003 -0.718568,3.7669899 -0.739804,3.8376799 -0.03618,0.12038 0.09879,0.12854 2.12784,0.12854 h 2.166467 z m 2.974155,0.25708 c 0.07235,-0.32041 1.434447,-7.5640299 1.434447,-7.6284399 0,-0.0359 -0.38956,-0.0653 -0.865687,-0.0653 h -0.865696 l -0.724623,3.83768 c -0.398539,2.11072 -0.739657,3.8789899 -0.758022,3.9294899 -0.02559,0.0703 0.175304,0.0918 0.854427,0.0918 0.860699,0 0.88898,-0.005 0.925154,-0.16526 z m 3.30403,0.0735 c 0.0158,-0.0505 0.15092,-0.7440999 0.3002,-1.5413599 0.1493,-0.79726 0.29627,-1.43421 0.32663,-1.41544 0.0304,0.0187 0.32872,0.71237 0.66302,1.54137 l 0.60782,1.5072499 h 1.01577 1.01577 l -0.0652,-0.16526 c -0.0358,-0.0909 -0.36524,-0.8216999 -0.73196,-1.6240199 -0.36672,-0.80231 -0.64862,-1.48814 -0.62642,-1.52405 0.0222,-0.0359 0.0827,-0.0653 0.13446,-0.0653 0.22164,0 1.00741,-0.47016 1.27998,-0.76587 0.39725,-0.43096 0.58218,-0.81477 0.68693,-1.42561 0.16911,-0.98621 -0.17463,-1.71198 -0.98313,-2.07571 -0.36789,-0.16551 -0.4822,-0.17625 -2.12641,-0.19979 -1.63174,-0.0233 -1.74006,-0.0167 -1.77749,0.10941 -0.0565,0.19017 -1.442657,7.5372899 -1.442657,7.6462899 0,0.12964 1.682057,0.12777 1.722687,-0.002 z m 0.84801,-4.3237199 c 0,-0.099 0.25296,-1.4875 0.32788,-1.79967 0.075,-0.31253 1.05355,-0.27819 1.40205,0.0492 0.36574,0.3436 0.13465,1.22519 -0.41684,1.59015 -0.34099,0.22565 -1.31309,0.34434 -1.31309,0.16032 z"
       id="path562"
       sodipodi:nodetypes="ssssssscssssscscsssccsscscsssccsssssscssssccssssscscssssscscsscssssscsssssssssssssssssssscscssscccssssscccccccsccccsssscccsssccsssscccsssscsssscssscccssscsccccccssscccssccccccssscccccccccccccccccccccccccsssssccsssscccccccsscssscccccccccssccsssscccsssccccssccccccccccccccccssssssssssssssssssssssssssssscssssscssssssssscsssssssssssscscsscccssssssscsssssssccsssccccsscsssccscscssscscscsssssssssscssscsssccsssscsccccscscssscccsssccssscsssssssssscccsssssscscsssssssssssscssscccccsssscsccsssscsssssssssscsssscsssscsccsssssssssssssssssssscssssccssscscssssssssssscscssssscsssssssssssscsccscccsscssscsssccccssscscccsssccsscssscccscssscccssssssscsssscssssscssscccssssssssssccssssss" />
    <rect
       style="fill:#fdf118;stroke-width:0.215725"
       id="rect982"
       width="0.79374999"
       height="31.75"
       x="0.4113853"
       y="-4.4408921e-15" />
  </g>
</svg>
